<?xml version="1.0" encoding="UTF-8"?>
<svg id="Calque_2" data-name="Calque 2" xmlns="http://www.w3.org/2000/svg" xmlns:xlink="http://www.w3.org/1999/xlink" viewBox="0 0 53.22 59.05">
  <defs>
    <style>
      .cls-1 {
        stroke: url(#Dégradé_sans_nom_92-24);
      }

      .cls-1, .cls-2, .cls-3, .cls-4, .cls-5, .cls-6, .cls-7, .cls-8, .cls-9, .cls-10, .cls-11, .cls-12, .cls-13, .cls-14, .cls-15, .cls-16, .cls-17, .cls-18, .cls-19, .cls-20, .cls-21, .cls-22, .cls-23, .cls-24, .cls-25, .cls-26, .cls-27, .cls-28, .cls-29, .cls-30, .cls-31, .cls-32, .cls-33, .cls-34 {
        fill: none;
        stroke-miterlimit: 10;
      }

      .cls-1, .cls-2, .cls-3, .cls-4, .cls-5, .cls-6, .cls-7, .cls-9, .cls-10, .cls-11, .cls-12, .cls-13, .cls-14, .cls-15, .cls-16, .cls-17, .cls-18, .cls-19, .cls-20, .cls-21, .cls-22, .cls-24, .cls-25, .cls-26, .cls-27, .cls-28, .cls-29, .cls-30, .cls-31, .cls-32, .cls-33, .cls-34 {
        stroke-width: .5px;
      }

      .cls-2 {
        stroke: url(#Dégradé_sans_nom_92-4);
      }

      .cls-3 {
        stroke: url(#Dégradé_sans_nom_92-9);
      }

      .cls-4 {
        stroke: url(#Dégradé_sans_nom_92-11);
      }

      .cls-5 {
        stroke: url(#Dégradé_sans_nom_92-22);
      }

      .cls-6 {
        stroke: url(#Dégradé_sans_nom_92-18);
      }

      .cls-7 {
        stroke: url(#Dégradé_sans_nom_92);
      }

      .cls-8 {
        stroke-width: 1.34px;
      }

      .cls-8, .cls-23 {
        stroke: #fff;
      }

      .cls-9 {
        stroke: url(#Dégradé_sans_nom_92-25);
      }

      .cls-10 {
        stroke: url(#Dégradé_sans_nom_92-15);
      }

      .cls-11 {
        stroke: url(#Dégradé_sans_nom_92-23);
      }

      .cls-12 {
        stroke: url(#Dégradé_sans_nom_92-5);
      }

      .cls-13 {
        stroke: url(#Dégradé_sans_nom_92-13);
      }

      .cls-14 {
        stroke: url(#Dégradé_sans_nom_92-27);
      }

      .cls-15 {
        stroke: url(#Dégradé_sans_nom_92-2);
      }

      .cls-16 {
        stroke: url(#Dégradé_sans_nom_92-8);
      }

      .cls-17 {
        stroke: url(#Dégradé_sans_nom_92-32);
      }

      .cls-35 {
        opacity: .35;
      }

      .cls-18 {
        stroke: url(#Dégradé_sans_nom_92-19);
      }

      .cls-19 {
        stroke: url(#Dégradé_sans_nom_92-21);
      }

      .cls-20 {
        stroke: url(#Dégradé_sans_nom_92-16);
      }

      .cls-36 {
        fill: #fff;
        stroke-width: 0px;
      }

      .cls-21 {
        stroke: url(#Dégradé_sans_nom_92-26);
      }

      .cls-22 {
        stroke: url(#Dégradé_sans_nom_92-30);
      }

      .cls-23 {
        stroke-linecap: round;
        stroke-width: 4.87px;
      }

      .cls-24 {
        stroke: url(#Dégradé_sans_nom_92-6);
      }

      .cls-25 {
        stroke: url(#Dégradé_sans_nom_92-10);
      }

      .cls-26 {
        stroke: url(#Dégradé_sans_nom_92-14);
      }

      .cls-27 {
        stroke: url(#Dégradé_sans_nom_92-17);
      }

      .cls-28 {
        stroke: url(#Dégradé_sans_nom_92-7);
      }

      .cls-29 {
        stroke: url(#Dégradé_sans_nom_92-20);
      }

      .cls-30 {
        stroke: url(#Dégradé_sans_nom_92-3);
      }

      .cls-31 {
        stroke: url(#Dégradé_sans_nom_92-31);
      }

      .cls-32 {
        stroke: url(#Dégradé_sans_nom_92-28);
      }

      .cls-33 {
        stroke: url(#Dégradé_sans_nom_92-12);
      }

      .cls-34 {
        stroke: url(#Dégradé_sans_nom_92-29);
      }
    </style>
    <linearGradient id="Dégradé_sans_nom_92" data-name="Dégradé sans nom 92" x1="0" y1="29.53" x2="53.22" y2="29.53" gradientUnits="userSpaceOnUse">
      <stop offset="0" stop-color="#74c8d6"/>
      <stop offset=".5" stop-color="#354798"/>
      <stop offset="1" stop-color="#e484b5"/>
    </linearGradient>
    <linearGradient id="Dégradé_sans_nom_92-2" data-name="Dégradé sans nom 92" x1=".82" y1="29.52" x2="52.4" y2="29.52" xlink:href="#Dégradé_sans_nom_92"/>
    <linearGradient id="Dégradé_sans_nom_92-3" data-name="Dégradé sans nom 92" x1="1.64" y1="29.51" x2="51.58" y2="29.51" xlink:href="#Dégradé_sans_nom_92"/>
    <linearGradient id="Dégradé_sans_nom_92-4" data-name="Dégradé sans nom 92" x1="2.47" y1="29.5" x2="50.76" y2="29.5" xlink:href="#Dégradé_sans_nom_92"/>
    <linearGradient id="Dégradé_sans_nom_92-5" data-name="Dégradé sans nom 92" x1="3.29" y1="29.5" x2="49.94" y2="29.5" xlink:href="#Dégradé_sans_nom_92"/>
    <linearGradient id="Dégradé_sans_nom_92-6" data-name="Dégradé sans nom 92" x1="4.11" y1="29.49" x2="49.12" y2="29.49" xlink:href="#Dégradé_sans_nom_92"/>
    <linearGradient id="Dégradé_sans_nom_92-7" data-name="Dégradé sans nom 92" x1="4.93" y1="29.48" x2="48.3" y2="29.48" xlink:href="#Dégradé_sans_nom_92"/>
    <linearGradient id="Dégradé_sans_nom_92-8" data-name="Dégradé sans nom 92" x1="5.75" y1="29.47" x2="47.48" y2="29.47" xlink:href="#Dégradé_sans_nom_92"/>
    <linearGradient id="Dégradé_sans_nom_92-9" data-name="Dégradé sans nom 92" x1="6.57" y1="29.46" x2="46.66" y2="29.46" xlink:href="#Dégradé_sans_nom_92"/>
    <linearGradient id="Dégradé_sans_nom_92-10" data-name="Dégradé sans nom 92" x1="7.39" y1="29.46" x2="45.84" y2="29.46" xlink:href="#Dégradé_sans_nom_92"/>
    <linearGradient id="Dégradé_sans_nom_92-11" data-name="Dégradé sans nom 92" x1="8.22" y1="29.45" x2="45.02" y2="29.45" xlink:href="#Dégradé_sans_nom_92"/>
    <linearGradient id="Dégradé_sans_nom_92-12" data-name="Dégradé sans nom 92" x1="9.04" y1="29.44" x2="44.2" y2="29.44" xlink:href="#Dégradé_sans_nom_92"/>
    <linearGradient id="Dégradé_sans_nom_92-13" data-name="Dégradé sans nom 92" x1="9.86" y1="29.43" x2="43.38" y2="29.43" xlink:href="#Dégradé_sans_nom_92"/>
    <linearGradient id="Dégradé_sans_nom_92-14" data-name="Dégradé sans nom 92" x1="10.68" y1="29.43" x2="42.56" y2="29.43" xlink:href="#Dégradé_sans_nom_92"/>
    <linearGradient id="Dégradé_sans_nom_92-15" data-name="Dégradé sans nom 92" x1="11.5" y1="29.42" x2="41.74" y2="29.42" xlink:href="#Dégradé_sans_nom_92"/>
    <linearGradient id="Dégradé_sans_nom_92-16" data-name="Dégradé sans nom 92" x1="12.32" y1="29.41" x2="40.92" y2="29.41" xlink:href="#Dégradé_sans_nom_92"/>
    <linearGradient id="Dégradé_sans_nom_92-17" data-name="Dégradé sans nom 92" x1="13.14" y1="29.4" x2="40.1" y2="29.4" xlink:href="#Dégradé_sans_nom_92"/>
    <linearGradient id="Dégradé_sans_nom_92-18" data-name="Dégradé sans nom 92" x1="13.97" y1="29.39" x2="39.28" y2="29.39" xlink:href="#Dégradé_sans_nom_92"/>
    <linearGradient id="Dégradé_sans_nom_92-19" data-name="Dégradé sans nom 92" x1="14.79" y1="29.39" x2="38.46" y2="29.39" xlink:href="#Dégradé_sans_nom_92"/>
    <linearGradient id="Dégradé_sans_nom_92-20" data-name="Dégradé sans nom 92" x1="15.61" y1="29.38" x2="37.64" y2="29.38" xlink:href="#Dégradé_sans_nom_92"/>
    <linearGradient id="Dégradé_sans_nom_92-21" data-name="Dégradé sans nom 92" x1="16.43" y1="29.37" x2="36.82" y2="29.37" xlink:href="#Dégradé_sans_nom_92"/>
    <linearGradient id="Dégradé_sans_nom_92-22" data-name="Dégradé sans nom 92" x1="17.25" y1="29.36" x2="36" y2="29.36" xlink:href="#Dégradé_sans_nom_92"/>
    <linearGradient id="Dégradé_sans_nom_92-23" data-name="Dégradé sans nom 92" x1="18.07" y1="29.36" x2="35.18" y2="29.36" xlink:href="#Dégradé_sans_nom_92"/>
    <linearGradient id="Dégradé_sans_nom_92-24" data-name="Dégradé sans nom 92" x1="18.89" y1="29.35" x2="34.36" y2="29.35" xlink:href="#Dégradé_sans_nom_92"/>
    <linearGradient id="Dégradé_sans_nom_92-25" data-name="Dégradé sans nom 92" x1="19.71" y1="29.34" x2="33.54" y2="29.34" xlink:href="#Dégradé_sans_nom_92"/>
    <linearGradient id="Dégradé_sans_nom_92-26" data-name="Dégradé sans nom 92" x1="20.53" y1="29.33" x2="32.72" y2="29.33" xlink:href="#Dégradé_sans_nom_92"/>
    <linearGradient id="Dégradé_sans_nom_92-27" data-name="Dégradé sans nom 92" x1="21.35" y1="29.32" x2="31.9" y2="29.32" xlink:href="#Dégradé_sans_nom_92"/>
    <linearGradient id="Dégradé_sans_nom_92-28" data-name="Dégradé sans nom 92" x1="22.17" y1="29.32" x2="31.08" y2="29.32" xlink:href="#Dégradé_sans_nom_92"/>
    <linearGradient id="Dégradé_sans_nom_92-29" data-name="Dégradé sans nom 92" x1="22.98" y1="29.33" x2="30.26" y2="29.33" xlink:href="#Dégradé_sans_nom_92"/>
    <linearGradient id="Dégradé_sans_nom_92-30" data-name="Dégradé sans nom 92" x1="23.79" y1="29.39" x2="29.44" y2="29.39" xlink:href="#Dégradé_sans_nom_92"/>
    <linearGradient id="Dégradé_sans_nom_92-31" data-name="Dégradé sans nom 92" x1="24.55" y1="29.46" x2="28.62" y2="29.46" xlink:href="#Dégradé_sans_nom_92"/>
    <linearGradient id="Dégradé_sans_nom_92-32" data-name="Dégradé sans nom 92" x1="25.31" y1="29.53" x2="27.91" y2="29.53" xlink:href="#Dégradé_sans_nom_92"/>
  </defs>
  <g id="Calque_1-2" data-name="Calque 1">
    <g class="cls-35">
      <path class="cls-7" d="m2.1,9.86c1.53-1.18,3.67-1.19,5.56-.76s3.67,1.26,5.57,1.59c3.94.69,8.19-.93,10.66-4.08.73-.93,1.31-1.96,2.04-2.88,1.34-1.69,3.23-2.98,5.34-3.37s4.45.2,5.96,1.73c3.53,3.56,1.6,10.3,5.17,13.82.83.82,1.89,1.37,2.9,1.96,1.46.85,2.89,1.84,3.82,3.26s1.25,3.33.42,4.79c-1.08,1.9-3.61,2.46-4.99,4.16-1.87,2.3-.96,5.76.5,8.35.88,1.56,1.92,3.03,3.11,4.37,1.52,1.71,3.3,3.27,4.22,5.36,1.33,3.04.38,6.93-2.21,9.01s-6.59,2.18-9.27.22c-1.7-1.24-2.82-3.13-4.41-4.51-2.09-1.81-4.99-2.66-7.72-2.25-2.96.44-5.54,2.22-8.37,3.21-1.45.51-2.97.81-4.5.89-1.28.07-2.62-.03-3.7-.72-1.39-.88-2.08-2.62-2.05-4.27s.67-3.23,1.46-4.68c1.07-1.97,2.47-4.17,1.71-6.28-.67-1.86-2.76-2.76-4.69-3.24s-4.03-.81-5.43-2.21c-1.99-1.98-1.76-5.22-1.3-7.99.54-3.22.48-5.35-.94-8.21C-.17,14.89-.07,11.53,2.1,9.86Z"/>
      <path class="cls-15" d="m2.86,10.48c1.48-1.14,3.56-1.16,5.38-.74,1.82.42,3.55,1.22,5.39,1.54,1.94.34,3.95.1,5.78-.62,1.77-.69,3.37-1.84,4.55-3.33.71-.9,1.27-1.9,1.97-2.79,1.29-1.63,3.13-2.89,5.18-3.27,1.32-.24,2.73-.09,3.96.44.68.3,1.3.71,1.82,1.24.2.2.38.41.55.64,1.17,1.58,1.54,3.62,1.87,5.69.33,2.07.61,4.16,1.61,5.84.27.44.58.86.96,1.23.81.8,1.83,1.33,2.81,1.9,1.41.82,2.8,1.78,3.7,3.15.9,1.37,1.22,3.22.41,4.64-1.04,1.84-3.5,2.39-4.83,4.03-1.81,2.23-.93,5.58.48,8.08.85,1.51,1.86,2.93,3.01,4.23,1.47,1.66,3.2,3.16,4.08,5.19,1.29,2.95.36,6.71-2.14,8.72-2.51,2.02-6.39,2.11-8.99.21-.07-.05-.13-.1-.2-.15-1.54-1.2-2.6-2.93-4.08-4.21-1-.87-2.2-1.51-3.47-1.89-1.3-.38-2.68-.49-4.01-.29-1.31.2-2.54.66-3.76,1.21-1.44.64-2.86,1.39-4.34,1.92-.54.19-1.09.35-1.65.48-.89.21-1.8.34-2.71.39-1.24.07-2.54-.03-3.59-.69-1.35-.86-2.01-2.54-1.99-4.13.03-1.6.65-3.13,1.41-4.53.27-.5.56-1.01.83-1.53.77-1.48,1.37-3.04.82-4.55-.65-1.81-2.67-2.68-4.53-3.14-.21-.05-.42-.1-.63-.15-1.68-.4-3.42-.79-4.63-1.99-1.93-1.92-1.71-5.05-1.26-7.74.52-3.12.47-5.18-.9-7.95-1.09-2.19-.98-5.44,1.11-7.06Z"/>
      <path class="cls-30" d="m3.63,11.1c1.43-1.11,3.44-1.12,5.21-.72,1.76.4,3.44,1.17,5.22,1.48,1.87.33,3.82.09,5.59-.6,1.71-.67,3.26-1.78,4.4-3.22.68-.87,1.23-1.84,1.91-2.7,1.25-1.58,3.03-2.79,5.01-3.16,1.28-.24,2.65-.09,3.83.43.65.29,1.25.69,1.76,1.2.19.2.37.4.53.62,1.13,1.53,1.49,3.51,1.8,5.51.32,2,.59,4.03,1.56,5.65.26.43.57.83.93,1.2.78.77,1.78,1.29,2.73,1.84,1.37.8,2.72,1.72,3.59,3.04.87,1.32,1.18,3.11.41,4.49-1.01,1.78-3.38,2.31-4.66,3.9-1.74,2.16-.9,5.4.46,7.82.82,1.46,1.8,2.84,2.91,4.09,1.42,1.6,3.09,3.06,3.95,5.02,1.24,2.85.35,6.48-2.08,8.43-2.43,1.95-6.18,2.03-8.71.2-.07-.05-.13-.1-.19-.15-1.49-1.16-2.52-2.84-3.95-4.08-.97-.84-2.13-1.46-3.36-1.82-1.26-.37-2.59-.48-3.89-.28-1.27.19-2.46.65-3.63,1.17-1.39.63-2.76,1.35-4.2,1.86-.52.18-1.05.34-1.59.47-.86.2-1.74.33-2.62.38-1.2.07-2.46-.03-3.47-.67-1.31-.83-1.95-2.45-1.93-4,.03-1.55.63-3.03,1.36-4.38.26-.48.54-.98.81-1.49.74-1.43,1.32-2.94.79-4.41-.63-1.75-2.58-2.59-4.38-3.05-.2-.05-.4-.1-.61-.15-1.62-.39-3.31-.76-4.48-1.93-1.86-1.86-1.65-4.89-1.22-7.49.5-3.02.45-5.02-.87-7.7-1.05-2.12-.95-5.26,1.08-6.83Z"/>
      <path class="cls-2" d="m4.4,11.72c1.39-1.07,3.33-1.09,5.03-.7,1.7.39,3.32,1.13,5.04,1.43,1.81.31,3.69.09,5.4-.58,1.66-.65,3.15-1.72,4.25-3.12.66-.84,1.19-1.77,1.85-2.61,1.21-1.53,2.93-2.7,4.85-3.05,1.24-.23,2.56-.09,3.71.42.63.28,1.21.67,1.69,1.16.19.19.35.39.51.6,1.09,1.48,1.43,3.39,1.73,5.34.3,1.94.57,3.9,1.51,5.47.25.42.55.8.91,1.16.76.75,1.72,1.24,2.64,1.78,1.33.77,2.63,1.67,3.48,2.94.85,1.27,1.15,3.01.41,4.34-.97,1.72-3.26,2.23-4.5,3.77-1.68,2.09-.86,5.21.45,7.55.79,1.41,1.74,2.74,2.81,3.95,1.37,1.55,2.98,2.96,3.81,4.85,1.2,2.75.34,6.26-2.01,8.14-2.36,1.89-5.98,1.96-8.42.19-.06-.05-.13-.09-.19-.14-1.44-1.12-2.44-2.74-3.82-3.94-.94-.81-2.06-1.41-3.25-1.76-1.22-.36-2.51-.46-3.76-.27-1.23.19-2.38.63-3.51,1.14-1.35.61-2.67,1.31-4.06,1.81-.5.18-1.02.33-1.54.45-.83.2-1.68.32-2.54.37-1.16.07-2.38-.03-3.36-.65-1.26-.8-1.89-2.37-1.86-3.86.02-1.49.6-2.92,1.31-4.24.25-.47.52-.95.78-1.44.72-1.39,1.28-2.85.77-4.26-.61-1.69-2.5-2.51-4.23-2.95-.19-.05-.39-.1-.58-.14-1.57-.38-3.2-.74-4.33-1.87-1.8-1.8-1.6-4.73-1.18-7.24.48-2.92.44-4.85-.84-7.44-1.01-2.05-.91-5.09,1.05-6.6Z"/>
      <path class="cls-12" d="m5.16,12.34c1.34-1.03,3.21-1.05,4.86-.68,1.65.37,3.2,1.09,4.87,1.37,1.75.3,3.56.08,5.22-.57,1.6-.63,3.04-1.66,4.11-3.01.64-.81,1.15-1.71,1.79-2.52,1.17-1.47,2.83-2.6,4.68-2.94,1.2-.22,2.48-.08,3.58.41.61.27,1.17.65,1.63,1.13.18.18.34.38.49.58,1.05,1.43,1.37,3.28,1.66,5.16.29,1.88.55,3.78,1.46,5.29.24.4.53.78.88,1.12.73.72,1.66,1.2,2.55,1.72,1.28.74,2.55,1.61,3.37,2.83.82,1.23,1.12,2.9.4,4.19-.93,1.66-3.14,2.15-4.34,3.63-1.62,2.01-.83,5.03.43,7.29.76,1.36,1.67,2.64,2.71,3.81,1.32,1.49,2.87,2.85,3.67,4.68,1.16,2.66.32,6.04-1.94,7.86-2.28,1.82-5.78,1.89-8.14.18-.06-.04-.12-.09-.18-.14-1.39-1.08-2.36-2.65-3.7-3.81-.91-.79-1.99-1.36-3.14-1.7-1.17-.34-2.42-.44-3.63-.26-1.18.18-2.29.61-3.39,1.1-1.3.59-2.57,1.27-3.91,1.75-.49.17-.98.32-1.48.44-.8.19-1.62.31-2.45.36-1.12.06-2.3-.02-3.25-.62-1.22-.77-1.82-2.29-1.8-3.73.02-1.44.58-2.82,1.27-4.09.24-.45.51-.91.75-1.39.69-1.34,1.23-2.75.74-4.11-.59-1.63-2.41-2.42-4.08-2.85-.19-.05-.37-.09-.56-.14-1.51-.36-3.08-.72-4.17-1.81-1.74-1.74-1.54-4.56-1.14-6.99.46-2.82.42-4.69-.81-7.18-.97-1.98-.87-4.91,1.02-6.37Z"/>
      <path class="cls-24" d="m5.93,12.95c1.29-1,3.09-1.01,4.68-.66,1.59.36,3.09,1.04,4.69,1.32,1.68.29,3.44.07,5.03-.55,1.54-.61,2.93-1.6,3.96-2.9.62-.78,1.11-1.65,1.72-2.43,1.13-1.42,2.73-2.51,4.51-2.83,1.16-.21,2.39-.08,3.46.4.59.26,1.12.63,1.57,1.09.17.18.33.36.47.56,1.01,1.38,1.32,3.17,1.59,4.98.28,1.81.53,3.65,1.41,5.11.23.39.51.75.85,1.08.71.7,1.61,1.16,2.47,1.65,1.24.71,2.46,1.55,3.25,2.73.79,1.18,1.09,2.79.4,4.03-.89,1.6-3.02,2.07-4.18,3.5-1.56,1.94-.8,4.85.42,7.02.74,1.31,1.61,2.55,2.61,3.68,1.27,1.44,2.77,2.75,3.53,4.51,1.11,2.56.31,5.82-1.87,7.57-2.2,1.75-5.58,1.82-7.86.17-.06-.04-.12-.09-.17-.13-1.35-1.05-2.28-2.55-3.57-3.67-.88-.76-1.92-1.31-3.04-1.64-1.13-.33-2.34-.42-3.5-.24-1.14.18-2.21.59-3.26,1.07-1.25.57-2.48,1.23-3.77,1.69-.47.17-.95.31-1.43.43-.77.19-1.57.3-2.36.35-1.08.06-2.22-.02-3.13-.6-1.18-.74-1.76-2.2-1.74-3.59.02-1.39.56-2.72,1.22-3.95.23-.43.49-.88.72-1.34.67-1.29,1.19-2.65.71-3.97-.56-1.57-2.32-2.34-3.93-2.75-.18-.05-.36-.09-.54-.13-1.46-.35-2.97-.7-4.02-1.75-1.68-1.67-1.49-4.4-1.11-6.74.45-2.72.41-4.52-.77-6.93-.93-1.91-.83-4.73.99-6.14Z"/>
      <path class="cls-28" d="m6.7,13.57c1.24-.96,2.98-.98,4.51-.63,1.53.34,2.97,1,4.51,1.26,1.62.28,3.31.07,4.84-.53,1.49-.58,2.82-1.54,3.82-2.79.59-.75,1.07-1.59,1.66-2.33,1.09-1.36,2.63-2.41,4.35-2.73,1.12-.2,2.31-.08,3.33.38.57.25,1.08.61,1.51,1.05.16.17.31.35.45.54.96,1.33,1.26,3.05,1.53,4.8.27,1.75.51,3.52,1.36,4.93.23.37.49.72.82,1.04.68.67,1.55,1.12,2.38,1.59,1.2.69,2.37,1.49,3.14,2.62.77,1.14,1.06,2.69.4,3.88-.86,1.54-2.91,2-4.01,3.37-1.5,1.87-.77,4.66.4,6.75.71,1.26,1.55,2.45,2.51,3.54,1.22,1.38,2.66,2.65,3.39,4.34,1.07,2.46.29,5.6-1.81,7.28-2.12,1.69-5.38,1.75-7.57.16-.06-.04-.11-.08-.17-.13-1.3-1.01-2.2-2.46-3.44-3.53-.85-.73-1.85-1.26-2.93-1.58-1.09-.32-2.25-.41-3.38-.23-1.1.17-2.13.57-3.14,1.04-1.2.55-2.38,1.19-3.63,1.64-.45.16-.91.3-1.38.41-.75.18-1.51.3-2.28.34-1.04.06-2.14-.02-3.02-.57-1.13-.72-1.69-2.12-1.68-3.46.02-1.34.54-2.62,1.17-3.8.22-.42.47-.85.69-1.29.64-1.24,1.14-2.55.69-3.82-.54-1.52-2.23-2.25-3.78-2.65-.17-.04-.35-.09-.52-.13-1.4-.34-2.86-.67-3.87-1.69-1.61-1.61-1.44-4.24-1.07-6.49.43-2.62.39-4.36-.74-6.67-.89-1.84-.8-4.55.96-5.91Z"/>
      <path class="cls-16" d="m7.46,14.19c1.2-.92,2.86-.94,4.33-.61,1.47.33,2.86.96,4.34,1.21,1.56.26,3.18.06,4.65-.52,1.43-.56,2.72-1.48,3.67-2.68.57-.72,1.03-1.52,1.6-2.24,1.05-1.31,2.53-2.32,4.18-2.62,1.08-.2,2.23-.07,3.21.37.54.25,1.04.59,1.45,1.02.16.16.3.34.43.52.92,1.28,1.2,2.94,1.46,4.62.25,1.68.48,3.39,1.3,4.74.22.36.48.7.79,1,.66.64,1.49,1.07,2.29,1.53,1.15.66,2.29,1.43,3.03,2.52.74,1.09,1.03,2.58.39,3.73-.82,1.48-2.79,1.92-3.85,3.24-1.44,1.79-.74,4.48.38,6.49.68,1.21,1.49,2.36,2.4,3.4,1.17,1.33,2.55,2.54,3.26,4.17,1.02,2.36.28,5.38-1.74,6.99-2.04,1.62-5.18,1.68-7.29.15-.05-.04-.11-.08-.16-.12-1.25-.97-2.12-2.36-3.32-3.4-.82-.7-1.79-1.22-2.82-1.52-1.05-.31-2.17-.39-3.25-.22-1.06.17-2.04.56-3.01,1-1.15.53-2.29,1.15-3.48,1.58-.43.16-.87.29-1.32.4-.72.17-1.45.29-2.19.33-1,.06-2.06-.01-2.9-.55-1.09-.69-1.63-2.04-1.61-3.33.02-1.29.51-2.52,1.12-3.66.22-.4.45-.82.67-1.24.61-1.2,1.09-2.45.66-3.67-.52-1.46-2.14-2.17-3.63-2.55-.17-.04-.33-.08-.5-.13-1.35-.33-2.74-.65-3.72-1.62-1.55-1.55-1.38-4.07-1.03-6.24.41-2.52.37-4.19-.71-6.42-.86-1.77-.76-4.37.93-5.68Z"/>
      <path class="cls-3" d="m8.23,14.81c1.15-.88,2.75-.91,4.15-.59,1.41.31,2.74.91,4.16,1.15,1.49.25,3.05.06,4.46-.5,1.37-.54,2.61-1.42,3.52-2.57.55-.69.99-1.46,1.54-2.15,1.01-1.26,2.43-2.22,4.01-2.51,1.03-.19,2.14-.07,3.09.36.52.24.99.57,1.39.98.15.16.29.32.41.5.88,1.23,1.14,2.83,1.39,4.44.24,1.62.46,3.26,1.25,4.56.21.35.46.67.76.96.63.62,1.44,1.03,2.21,1.47,1.11.63,2.2,1.37,2.92,2.41.72,1.04,1,2.47.39,3.58-.78,1.42-2.67,1.84-3.69,3.11-1.38,1.72-.71,4.3.37,6.22.65,1.16,1.42,2.26,2.3,3.26,1.12,1.28,2.44,2.44,3.12,4,.98,2.27.27,5.16-1.67,6.7s-4.97,1.61-7.01.14c-.05-.04-.1-.08-.16-.12-1.2-.93-2.04-2.27-3.19-3.26-.78-.67-1.72-1.17-2.71-1.45-1.01-.29-2.09-.37-3.12-.21-1.02.16-1.96.54-2.89.97-1.11.51-2.19,1.11-3.34,1.53-.42.15-.84.28-1.27.39-.69.17-1.39.28-2.1.32-.96.06-1.98-.01-2.79-.52-1.05-.66-1.57-1.96-1.55-3.19.01-1.24.49-2.42,1.07-3.51.21-.39.43-.78.64-1.19.59-1.15,1.05-2.36.63-3.53-.5-1.4-2.05-2.08-3.48-2.46-.16-.04-.32-.08-.48-.12-1.29-.32-2.63-.63-3.56-1.56-1.49-1.49-1.33-3.91-.99-5.99.39-2.43.36-4.03-.68-6.16-.82-1.7-.72-4.2.9-5.45Z"/>
      <path class="cls-25" d="m9,15.42c1.1-.85,2.63-.87,3.98-.57,1.35.3,2.62.87,3.99,1.1,1.43.24,2.92.05,4.28-.48,1.31-.52,2.5-1.36,3.38-2.47.53-.66.95-1.4,1.47-2.06.97-1.2,2.33-2.13,3.85-2.4.99-.18,2.06-.07,2.96.35.5.23.95.54,1.32.94.14.15.27.31.39.48.84,1.18,1.09,2.71,1.32,4.26.23,1.55.44,3.13,1.2,4.38.2.33.44.64.73.92.61.59,1.38.99,2.12,1.41,1.07.61,2.12,1.31,2.8,2.31.69,1,.96,2.36.38,3.43-.74,1.36-2.55,1.76-3.53,2.98-1.32,1.65-.68,4.11.35,5.96.62,1.11,1.36,2.16,2.2,3.12,1.07,1.22,2.34,2.33,2.98,3.83.94,2.17.25,4.94-1.6,6.41s-4.77,1.54-6.72.13c-.05-.04-.1-.07-.15-.11-1.15-.89-1.96-2.18-3.07-3.12-.75-.64-1.65-1.12-2.6-1.39-.97-.28-2-.36-2.99-.2-.97.16-1.88.52-2.77.94-1.06.49-2.1,1.07-3.19,1.47-.4.15-.8.27-1.22.37-.66.16-1.33.27-2.01.31-.92.06-1.89,0-2.68-.5-1-.63-1.5-1.87-1.49-3.06.01-1.18.47-2.32,1.02-3.36.2-.37.41-.75.61-1.14.56-1.1,1-2.26.61-3.38-.48-1.34-1.96-2-3.33-2.36-.15-.04-.31-.08-.46-.12-1.23-.31-2.52-.61-3.41-1.5-1.42-1.43-1.27-3.75-.95-5.74.37-2.33.34-3.86-.64-5.91-.78-1.62-.68-4.02.87-5.22Z"/>
      <path class="cls-4" d="m9.76,16.04c1.05-.81,2.52-.83,3.8-.55,1.29.28,2.51.83,3.81,1.04,1.37.22,2.79.04,4.09-.47,1.26-.5,2.39-1.3,3.23-2.36.5-.63.91-1.34,1.41-1.97.92-1.15,2.23-2.03,3.68-2.3.95-.17,1.97-.06,2.84.34.48.22.91.52,1.26.91.14.15.26.3.37.46.8,1.13,1.03,2.6,1.25,4.09.22,1.49.42,3,1.15,4.2.19.32.42.61.7.88.58.57,1.32.95,2.03,1.35,1.02.58,2.03,1.25,2.69,2.2.66.95.93,2.26.38,3.27-.71,1.3-2.44,1.68-3.37,2.84-1.26,1.57-.65,3.93.34,5.69.59,1.07,1.3,2.07,2.1,2.98,1.02,1.17,2.23,2.23,2.84,3.66.89,2.07.24,4.72-1.54,6.13s-4.57,1.47-6.44.12c-.05-.03-.1-.07-.14-.11-1.11-.85-1.87-2.08-2.94-2.99-.72-.62-1.58-1.07-2.49-1.33-.93-.27-1.92-.34-2.87-.18-.93.15-1.79.5-2.64.9-1.01.48-2,1.03-3.05,1.42-.38.14-.77.26-1.16.36-.63.16-1.28.26-1.93.3-.88.06-1.81,0-2.56-.47-.96-.6-1.44-1.79-1.43-2.92.01-1.13.44-2.22.97-3.22.19-.35.39-.72.58-1.09.54-1.05.96-2.16.58-3.24-.45-1.28-1.87-1.91-3.17-2.26-.15-.04-.29-.08-.44-.11-1.18-.3-2.41-.58-3.26-1.44-1.36-1.37-1.22-3.59-.91-5.49.35-2.23.33-3.69-.61-5.65-.74-1.55-.64-3.84.85-4.99Z"/>
      <path class="cls-33" d="m10.53,16.66c1-.77,2.4-.8,3.63-.53,1.23.27,2.39.78,3.64.98,1.3.21,2.66.04,3.9-.45,1.2-.47,2.28-1.24,3.08-2.25.48-.6.87-1.27,1.35-1.87.88-1.1,2.13-1.93,3.51-2.19.91-.17,1.89-.06,2.71.32.46.21.86.5,1.2.87.13.14.25.29.35.44.75,1.08.97,2.48,1.18,3.91.21,1.42.4,2.87,1.1,4.02.19.3.41.59.67.84.56.54,1.27.9,1.94,1.29.98.55,1.94,1.19,2.58,2.09.64.91.9,2.15.38,3.12-.67,1.24-2.32,1.61-3.2,2.71-1.2,1.5-.61,3.74.32,5.43.56,1.02,1.24,1.97,2,2.84.97,1.11,2.12,2.13,2.7,3.49.85,1.98.22,4.5-1.47,5.84s-4.37,1.4-6.15.11c-.05-.03-.09-.07-.14-.1-1.06-.81-1.79-1.99-2.81-2.85-.69-.59-1.51-1.02-2.38-1.27-.89-.26-1.83-.32-2.74-.17-.89.15-1.71.48-2.52.87-.96.46-1.91.98-2.91,1.36-.36.14-.73.25-1.11.35-.6.15-1.22.25-1.84.29-.84.06-1.73,0-2.45-.45-.92-.58-1.37-1.71-1.36-2.79,0-1.08.42-2.12.93-3.07.18-.34.37-.69.55-1.04.51-1.01.91-2.06.55-3.09-.43-1.23-1.78-1.83-3.02-2.16-.14-.04-.28-.07-.42-.11-1.12-.28-2.29-.56-3.11-1.38-1.3-1.31-1.17-3.42-.88-5.24.34-2.13.31-3.53-.58-5.4-.7-1.48-.61-3.66.82-4.76Z"/>
      <path class="cls-13" d="m11.3,17.28c.96-.74,2.28-.76,3.45-.51,1.17.25,2.28.74,3.46.93,1.24.2,2.53.03,3.71-.43,1.14-.45,2.17-1.18,2.94-2.14.46-.57.83-1.21,1.29-1.78.84-1.04,2.03-1.84,3.35-2.08.87-.16,1.8-.06,2.59.31.43.2.82.48,1.14.83.12.13.23.27.33.42.71,1.03.92,2.37,1.11,3.73.19,1.36.38,2.74,1.05,3.83.18.29.39.56.64.81.53.52,1.21.86,1.86,1.22.94.52,1.86,1.13,2.47,1.99.61.86.87,2.04.37,2.97-.63,1.18-2.2,1.53-3.04,2.58-1.14,1.43-.58,3.56.3,5.16.54.97,1.17,1.87,1.9,2.7.92,1.06,2.01,2.02,2.57,3.32.8,1.88.21,4.27-1.4,5.55s-4.17,1.33-5.87.1c-.04-.03-.09-.06-.13-.1-1.01-.78-1.71-1.89-2.69-2.72-.66-.56-1.44-.97-2.27-1.21-.85-.24-1.75-.31-2.61-.16-.85.14-1.63.47-2.4.83-.91.44-1.81.94-2.76,1.3-.34.13-.7.24-1.05.33-.57.15-1.16.24-1.75.28-.8.06-1.65,0-2.34-.43-.87-.55-1.31-1.62-1.3-2.65,0-1.03.4-2.02.88-2.93.17-.32.35-.65.53-.99.49-.96.87-1.97.53-2.94-.41-1.17-1.69-1.74-2.87-2.06-.13-.04-.26-.07-.4-.1-1.07-.27-2.18-.54-2.96-1.32-1.24-1.25-1.11-3.26-.84-4.99.32-2.03.3-3.36-.55-5.14-.67-1.41-.57-3.48.79-4.53Z"/>
      <path class="cls-26" d="m12.06,17.89c.91-.7,2.17-.72,3.28-.49,1.11.24,2.16.7,3.28.87,1.18.19,2.4.03,3.52-.42,1.08-.43,2.06-1.13,2.79-2.03.44-.54.79-1.15,1.22-1.69.8-.99,1.93-1.74,3.18-1.97.83-.15,1.72-.06,2.47.3.41.2.77.46,1.08.8.11.13.22.26.31.4.67.99.86,2.26,1.04,3.55.18,1.29.36,2.61.99,3.65.17.28.37.53.61.77.51.49,1.15.82,1.77,1.16.89.5,1.77,1.07,2.35,1.88.58.82.84,1.94.37,2.82-.6,1.12-2.08,1.45-2.88,2.45-1.08,1.35-.55,3.38.29,4.89.51.92,1.11,1.78,1.8,2.57.87,1,1.9,1.92,2.43,3.15.76,1.78.2,4.05-1.33,5.26s-3.96,1.26-5.59.09c-.04-.03-.08-.06-.12-.09-.96-.74-1.63-1.8-2.56-2.58-.63-.53-1.37-.92-2.16-1.15-.81-.23-1.66-.29-2.48-.15-.8.14-1.55.45-2.27.8-.87.42-1.72.9-2.62,1.25-.33.13-.66.23-1,.32-.54.14-1.1.23-1.67.28-.76.06-1.57,0-2.22-.4-.83-.52-1.25-1.54-1.24-2.52,0-.98.37-1.92.83-2.78.16-.31.34-.62.5-.94.46-.91.82-1.87.5-2.8-.39-1.11-1.6-1.66-2.72-1.96-.12-.03-.25-.07-.38-.1-1.01-.26-2.07-.52-2.8-1.26-1.17-1.18-1.06-3.1-.8-4.74.3-1.93.28-3.2-.51-4.89-.63-1.34-.53-3.31.76-4.3Z"/>
      <path class="cls-10" d="m12.83,18.51c.86-.66,2.05-.69,3.1-.47,1.05.22,2.05.65,3.11.82,1.11.17,2.28.02,3.33-.4,1.03-.41,1.95-1.07,2.64-1.92.41-.51.75-1.09,1.16-1.6.76-.93,1.83-1.65,3.02-1.87.79-.14,1.64-.05,2.34.29.39.19.73.44,1.01.76.11.12.21.25.29.38.63.94.8,2.14.97,3.37.17,1.23.34,2.48.94,3.47.16.26.35.51.58.73.48.47,1.1.78,1.68,1.1.85.47,1.69,1.01,2.24,1.78.56.77.81,1.83.37,2.66-.56,1.06-1.97,1.37-2.72,2.32-1.02,1.28-.52,3.19.27,4.63.48.87,1.05,1.68,1.7,2.43.83.95,1.8,1.82,2.29,2.98.72,1.68.18,3.83-1.27,4.97s-3.76,1.19-5.3.08c-.04-.03-.08-.06-.12-.09-.91-.7-1.55-1.7-2.43-2.44-.6-.5-1.3-.87-2.06-1.08-.77-.22-1.58-.27-2.36-.13-.76.13-1.46.43-2.15.77-.82.4-1.62.86-2.47,1.19-.31.12-.62.22-.95.31-.51.14-1.04.23-1.58.27-.72.05-1.49,0-2.11-.38-.79-.49-1.18-1.46-1.18-2.38,0-.92.35-1.81.78-2.63.15-.29.32-.59.47-.89.44-.86.78-1.77.47-2.65-.37-1.05-1.51-1.57-2.57-1.87-.12-.03-.24-.06-.36-.1-.96-.25-1.95-.49-2.65-1.2-1.11-1.12-1.01-2.93-.76-4.49.28-1.83.26-3.03-.48-4.63-.59-1.27-.49-3.13.73-4.07Z"/>
      <path class="cls-20" d="m13.6,19.13c.81-.63,1.94-.65,2.93-.45.99.2,1.93.61,2.93.76,1.05.16,2.15.01,3.15-.38.97-.39,1.84-1.01,2.5-1.82.39-.48.71-1.02,1.1-1.51.72-.88,1.73-1.55,2.85-1.76.75-.14,1.55-.05,2.22.28.37.18.69.42.95.72.1.11.19.23.27.36.59.89.74,2.03.9,3.19.16,1.16.31,2.35.89,3.29.15.25.33.48.55.69.46.44,1.04.73,1.6,1.04.8.44,1.6.95,2.13,1.67.53.72.77,1.72.36,2.51-.52,1-1.85,1.3-2.55,2.18-.96,1.21-.49,3.01.26,4.36.45.82.99,1.59,1.59,2.29.78.9,1.69,1.71,2.15,2.81.67,1.59.17,3.61-1.2,4.68s-3.56,1.12-5.02.07c-.04-.03-.08-.05-.11-.08-.86-.66-1.47-1.61-2.31-2.31-.57-.47-1.23-.82-1.95-1.02-.72-.2-1.49-.25-2.23-.12-.72.13-1.38.41-2.03.73-.77.38-1.53.82-2.33,1.14-.29.11-.59.21-.89.29-.49.13-.99.22-1.49.26-.68.05-1.41.01-2-.35-.74-.46-1.12-1.38-1.12-2.25,0-.87.33-1.71.73-2.49.14-.27.3-.56.44-.85.41-.82.73-1.67.44-2.5-.34-.99-1.42-1.49-2.42-1.77-.11-.03-.22-.06-.34-.09-.9-.24-1.84-.47-2.5-1.14-1.05-1.06-.95-2.77-.72-4.24.26-1.73.25-2.87-.45-4.37-.55-1.2-.46-2.95.7-3.84Z"/>
      <path class="cls-27" d="m14.37,19.75c.76-.59,1.82-.62,2.75-.43.93.19,1.81.57,2.76.71.99.15,2.02,0,2.96-.37.91-.36,1.73-.95,2.35-1.71.37-.45.67-.96,1.04-1.41.68-.83,1.63-1.46,2.68-1.65.71-.13,1.47-.05,2.09.27.34.17.64.4.89.68.09.11.18.22.25.34.54.84.69,1.92.83,3.01.14,1.1.29,2.22.84,3.11.14.23.32.45.52.65.43.42.98.69,1.51.98.76.42,1.51.89,2.02,1.57.5.68.74,1.62.36,2.36-.49.94-1.73,1.22-2.39,2.05-.9,1.13-.46,2.83.24,4.1.42.77.92,1.49,1.49,2.15.73.84,1.58,1.61,2.01,2.63.63,1.49.15,3.39-1.13,4.4s-3.36,1.05-4.74.06c-.04-.03-.07-.05-.11-.08-.82-.62-1.39-1.51-2.18-2.17-.53-.45-1.17-.77-1.84-.96-.68-.19-1.41-.24-2.1-.11-.68.12-1.3.4-1.9.7-.72.36-1.43.78-2.19,1.08-.27.11-.55.2-.84.28-.46.12-.93.21-1.4.25-.64.05-1.33.01-1.88-.33-.7-.43-1.05-1.29-1.05-2.11,0-.82.3-1.61.68-2.34.13-.26.28-.53.41-.8.38-.77.69-1.57.42-2.36-.32-.94-1.33-1.4-2.27-1.67-.1-.03-.21-.06-.32-.09-.85-.23-1.73-.45-2.35-1.07-.98-1-.9-2.61-.68-3.99.25-1.63.23-2.7-.42-4.12-.52-1.13-.42-2.77.67-3.61Z"/>
      <path class="cls-6" d="m15.13,20.36c.72-.55,1.71-.58,2.58-.41.87.17,1.7.52,2.58.65.93.14,1.89,0,2.77-.35.85-.34,1.63-.89,2.2-1.6.35-.43.63-.9.97-1.32.64-.77,1.53-1.36,2.52-1.54.66-.12,1.38-.04,1.97.25.32.16.6.38.83.65.09.1.16.21.24.32.5.79.63,1.8.76,2.84.13,1.03.27,2.09.79,2.92.14.22.3.43.49.61.41.39.93.65,1.42.92.72.39,1.43.83,1.9,1.46.48.63.71,1.51.36,2.21-.45.88-1.61,1.14-2.23,1.92-.84,1.06-.43,2.64.22,3.83.39.72.86,1.39,1.39,2.01.68.79,1.47,1.51,1.88,2.46.58,1.39.14,3.17-1.06,4.11s-3.16.98-4.45.05c-.03-.02-.07-.05-.1-.07-.77-.58-1.31-1.42-2.05-2.03-.5-.42-1.1-.72-1.73-.9-.64-.18-1.33-.22-1.97-.1-.64.12-1.21.38-1.78.67-.67.34-1.34.74-2.04,1.03-.26.1-.52.19-.78.27-.43.12-.87.2-1.32.24-.61.05-1.25.02-1.77-.3-.66-.41-.99-1.21-.99-1.98,0-.77.28-1.51.63-2.2.12-.24.26-.49.39-.75.36-.72.64-1.48.39-2.21-.3-.88-1.24-1.32-2.12-1.57-.1-.03-.2-.06-.29-.08-.79-.22-1.62-.42-2.19-1.01-.92-.94-.84-2.44-.65-3.74.23-1.53.22-2.54-.38-3.86-.48-1.05-.38-2.59.64-3.38Z"/>
      <path class="cls-18" d="m15.9,20.98c.67-.51,1.59-.54,2.4-.38.81.16,1.58.48,2.4.6.86.12,1.76,0,2.58-.34.8-.32,1.52-.83,2.06-1.49.32-.4.59-.84.91-1.23.6-.72,1.43-1.27,2.35-1.44.62-.11,1.3-.04,1.84.24.3.15.56.36.77.61.08.1.15.2.22.3.46.74.57,1.69.69,2.66.12.97.25,1.96.74,2.74.13.21.28.4.46.57.38.37.87.6,1.34.85.67.36,1.34.77,1.79,1.36.45.59.68,1.4.35,2.06-.41.82-1.5,1.06-2.07,1.79-.78.99-.4,2.46.21,3.57.37.67.8,1.3,1.29,1.87.63.73,1.37,1.4,1.74,2.29.54,1.3.12,2.95-.99,3.82s-2.96.91-4.17.04c-.03-.02-.06-.05-.09-.07-.72-.55-1.23-1.32-1.93-1.9-.47-.39-1.03-.68-1.62-.84-.6-.17-1.24-.2-1.85-.09-.59.11-1.13.36-1.66.63-.63.33-1.24.7-1.9.97-.24.1-.48.18-.73.25-.4.11-.81.19-1.23.23-.57.05-1.17.02-1.66-.28-.62-.38-.92-1.13-.93-1.85,0-.72.26-1.41.58-2.05.12-.23.24-.46.36-.7.33-.67.6-1.38.36-2.06-.28-.82-1.15-1.23-1.96-1.47-.09-.03-.18-.05-.27-.08-.73-.2-1.5-.4-2.04-.95-.86-.88-.79-2.28-.61-3.49.21-1.43.2-2.37-.35-3.61-.44-.98-.34-2.42.61-3.15Z"/>
      <path class="cls-29" d="m16.67,21.6c.62-.48,1.47-.51,2.23-.36.75.14,1.47.44,2.23.54.8.11,1.63-.01,2.39-.32.74-.3,1.41-.77,1.91-1.38.3-.37.55-.77.85-1.14.55-.66,1.33-1.17,2.18-1.33.58-.1,1.22-.04,1.72.23.28.15.51.34.7.57.07.09.14.18.2.28.42.69.52,1.57.62,2.48.11.9.23,1.83.68,2.56.12.19.26.37.43.53.36.34.81.56,1.25.79.63.33,1.26.71,1.68,1.25.43.54.65,1.3.35,1.9-.38.76-1.38.98-1.91,1.66-.72.91-.37,2.28.19,3.3.34.62.74,1.2,1.19,1.73.58.68,1.26,1.3,1.6,2.12.5,1.2.11,2.73-.93,3.53-1.09.85-2.75.84-3.89.04-.03-.02-.06-.04-.09-.06-.67-.51-1.15-1.23-1.8-1.76-.44-.36-.96-.63-1.51-.78-.56-.15-1.16-.19-1.72-.07-.55.11-1.05.34-1.53.6-.58.31-1.15.66-1.76.91-.22.09-.45.17-.68.24-.37.11-.75.18-1.14.22-.53.05-1.09.02-1.54-.26-.57-.35-.86-1.04-.87-1.71,0-.67.23-1.31.54-1.9.11-.21.22-.43.33-.65.31-.63.55-1.28.34-1.92-.26-.76-1.06-1.15-1.81-1.37-.08-.02-.17-.05-.25-.07-.68-.19-1.39-.38-1.89-.89-.8-.82-.73-2.12-.57-3.24.19-1.33.19-2.2-.32-3.35-.4-.91-.31-2.24.58-2.92Z"/>
      <path class="cls-19" d="m17.43,22.22c.57-.44,1.36-.47,2.05-.34.69.13,1.35.39,2.05.48.74.1,1.5-.02,2.21-.3.68-.28,1.3-.71,1.76-1.27.28-.34.51-.71.79-1.05.51-.61,1.23-1.08,2.02-1.22.54-.1,1.13-.03,1.6.22.26.14.47.32.64.54.07.08.12.17.18.26.38.64.46,1.46.55,2.3.1.84.21,1.7.63,2.38.11.18.25.34.4.49.34.31.76.52,1.16.73.59.31,1.17.65,1.57,1.14.4.49.62,1.19.35,1.75-.34.7-1.26.91-1.74,1.52-.66.84-.33,2.09.18,3.04.31.57.67,1.1,1.09,1.59.53.62,1.15,1.19,1.46,1.95.45,1.1.1,2.51-.86,3.24-1.01.78-2.55.77-3.6.03-.03-.02-.05-.04-.08-.06-.62-.47-1.07-1.13-1.67-1.63-.41-.33-.89-.58-1.4-.71-.52-.14-1.07-.17-1.59-.06-.51.11-.96.32-1.41.57-.53.29-1.05.62-1.61.86-.2.09-.41.16-.62.23-.34.1-.69.17-1.05.21-.49.05-1.01.02-1.43-.23-.53-.32-.8-.96-.8-1.58,0-.61.21-1.21.49-1.76.1-.19.2-.4.3-.6.28-.58.51-1.18.31-1.77-.23-.7-.97-1.06-1.66-1.28-.08-.02-.15-.05-.23-.07-.62-.18-1.28-.36-1.74-.83-.73-.75-.68-1.95-.53-2.99.18-1.23.17-2.04-.29-3.1-.36-.84-.27-2.06.55-2.69Z"/>
      <path class="cls-5" d="m18.2,22.84c.52-.4,1.24-.43,1.88-.32.63.11,1.23.35,1.88.43.67.08,1.37-.02,2.02-.29.62-.25,1.19-.65,1.62-1.17.26-.31.47-.65.72-.95.47-.56,1.13-.98,1.85-1.11.5-.09,1.05-.03,1.47.21.23.13.43.3.58.5.06.08.11.16.16.24.33.59.4,1.35.48,2.12.08.77.19,1.57.58,2.2.1.17.23.32.37.45.31.29.7.48,1.08.67.54.28,1.08.59,1.45,1.04.37.45.59,1.08.34,1.6-.3.64-1.14.83-1.58,1.39-.6.77-.3,1.91.16,2.77.28.52.61,1.01.99,1.46.48.57,1.04,1.09,1.32,1.78.41,1,.08,2.29-.79,2.96-.94.72-2.35.7-3.32.02-.03-.02-.05-.04-.07-.05-.57-.43-.99-1.04-1.55-1.49-.38-.3-.82-.53-1.29-.65-.48-.13-.99-.15-1.46-.05-.47.1-.88.31-1.29.53-.48.27-.96.58-1.47.8-.19.08-.38.15-.57.21-.31.1-.64.17-.97.2-.45.05-.93.03-1.31-.21-.49-.29-.73-.88-.74-1.44,0-.56.19-1.11.44-1.61.09-.18.19-.36.28-.55.26-.53.46-1.09.28-1.63-.21-.65-.88-.98-1.51-1.18-.07-.02-.14-.04-.21-.06-.57-.17-1.16-.33-1.59-.77-.67-.69-.63-1.79-.49-2.74.16-1.13.16-1.87-.25-2.84-.33-.77-.23-1.88.52-2.46Z"/>
      <path class="cls-11" d="m18.97,23.45c.48-.37,1.13-.4,1.7-.3.57.1,1.12.31,1.7.37.61.07,1.24-.03,1.83-.27.57-.23,1.08-.59,1.47-1.06.23-.28.43-.59.66-.86.43-.5,1.03-.89,1.69-1.01.46-.08.96-.03,1.35.19.21.12.38.28.52.46.05.07.1.15.14.22.29.54.34,1.23.41,1.94.07.71.17,1.44.53,2.02.1.15.21.29.34.41.29.26.64.43.99.61.5.25,1,.53,1.34.93.35.4.55.98.34,1.45-.27.58-1.03.75-1.42,1.26-.53.69-.27,1.73.14,2.5.25.47.55.91.89,1.32.43.52.94.99,1.19,1.61.36.91.07,2.06-.72,2.67-.86.65-2.15.63-3.04,0-.02-.02-.05-.03-.07-.05-.53-.39-.91-.95-1.42-1.35-.35-.28-.75-.48-1.18-.59-.44-.11-.9-.13-1.34-.04-.42.1-.8.29-1.16.5-.44.25-.86.53-1.32.75-.17.08-.34.14-.52.2-.28.09-.58.16-.88.19-.41.05-.85.03-1.2-.18-.44-.27-.67-.8-.68-1.31-.01-.51.17-1.01.39-1.47.08-.16.17-.33.25-.5.23-.48.42-.99.26-1.48-.19-.59-.79-.89-1.36-1.08-.06-.02-.13-.04-.19-.06-.51-.16-1.05-.31-1.43-.71-.61-.63-.57-1.63-.45-2.49.14-1.03.14-1.71-.22-2.59-.29-.7-.19-1.71.49-2.23Z"/>
      <path class="cls-1" d="m19.73,24.07c.43-.33,1.01-.36,1.53-.28.51.08,1,.26,1.52.32.55.06,1.12-.04,1.64-.25.51-.21.97-.53,1.33-.95.21-.25.39-.52.6-.77.39-.45.93-.79,1.52-.9.42-.07.88-.02,1.22.18.19.11.34.26.46.43.04.06.08.13.12.2.25.49.29,1.12.34,1.76.06.65.14,1.31.48,1.83.09.14.19.26.31.38.26.24.59.39.9.55.46.22.91.47,1.23.83.32.36.52.87.34,1.3-.23.52-.91.67-1.26,1.13-.47.62-.24,1.54.13,2.24.22.42.49.82.78,1.18.38.46.83.88,1.05,1.44.32.81.05,1.84-.66,2.38-.78.59-1.95.56-2.75,0-.02-.01-.04-.03-.06-.04-.48-.35-.83-.85-1.29-1.22-.32-.25-.68-.43-1.07-.53-.4-.1-.82-.12-1.21-.02-.38.09-.71.27-1.04.46-.39.23-.77.49-1.18.69-.15.07-.3.13-.46.19-.25.09-.52.15-.79.18-.37.05-.76.03-1.09-.16-.4-.24-.6-.71-.62-1.17-.01-.46.14-.91.34-1.32.07-.15.15-.3.22-.45.21-.43.37-.89.23-1.33-.17-.53-.7-.81-1.21-.98-.06-.02-.11-.04-.17-.06-.46-.15-.94-.29-1.28-.65-.54-.57-.52-1.46-.42-2.25.12-.93.12-1.54-.19-2.33-.25-.63-.15-1.53.46-2Z"/>
      <path class="cls-9" d="m20.5,24.69c.38-.29.9-.33,1.35-.26.46.07.89.22,1.35.26.48.05.99-.04,1.45-.24.45-.19.86-.47,1.18-.84.19-.22.35-.46.54-.68.35-.39.83-.7,1.35-.79.38-.07.79-.02,1.1.17.17.1.3.24.39.39.04.06.07.12.1.18.21.44.23,1.01.28,1.59.05.58.12,1.18.43,1.65.08.12.17.24.28.34.24.21.53.35.82.49.41.2.83.41,1.12.72s.49.76.33,1.14c-.19.46-.79.59-1.09,1-.41.55-.21,1.36.11,1.97.19.37.42.72.68,1.04.33.41.72.78.91,1.27.28.71.04,1.62-.59,2.09-.7.52-1.74.49-2.47-.01-.02-.01-.04-.03-.06-.04-.43-.31-.75-.76-1.17-1.08-.28-.22-.61-.38-.97-.47-.36-.09-.74-.1-1.08-.01-.34.09-.63.25-.92.43-.34.21-.67.45-1.04.63-.13.07-.27.12-.41.18-.22.08-.46.14-.71.17-.33.04-.68.04-.97-.13-.36-.21-.54-.63-.55-1.04-.01-.41.12-.81.29-1.17.06-.13.13-.27.19-.4.18-.39.32-.79.2-1.19-.15-.47-.62-.72-1.06-.88-.05-.02-.1-.03-.15-.05-.4-.14-.83-.27-1.13-.59-.48-.51-.46-1.3-.38-2,.1-.84.11-1.38-.16-2.07-.21-.56-.12-1.35.44-1.77Z"/>
      <path class="cls-21" d="m21.27,25.31c.33-.26.78-.29,1.18-.24.4.05.77.18,1.17.21.42.03.86-.05,1.26-.22.39-.17.75-.42,1.03-.73.17-.19.31-.4.47-.59.31-.34.73-.6,1.19-.68.34-.06.71-.02.97.16.15.1.25.22.33.35.03.05.06.11.08.16.17.4.17.89.21,1.41.03.52.1,1.06.37,1.47.07.11.16.21.26.3.21.19.47.31.73.42.37.17.74.35,1,.62s.46.65.33.99c-.16.4-.67.52-.93.87-.35.48-.18,1.18.1,1.71.17.32.36.62.58.9.28.35.61.68.77,1.1.23.62.02,1.4-.52,1.8-.62.46-1.54.41-2.18-.02-.02-.01-.03-.02-.05-.03-.38-.28-.67-.66-1.04-.94-.25-.19-.55-.33-.86-.41-.32-.08-.65-.08-.95,0-.3.08-.55.23-.79.4-.29.19-.58.41-.89.58-.11.06-.23.11-.35.16-.2.08-.4.13-.62.16-.29.04-.6.04-.86-.11-.31-.18-.48-.55-.49-.9-.02-.36.1-.7.24-1.03.05-.12.11-.23.16-.35.15-.34.28-.69.17-1.04-.12-.41-.53-.64-.91-.78-.04-.02-.09-.03-.13-.05-.35-.12-.71-.24-.98-.52-.42-.45-.41-1.14-.34-1.75.09-.74.09-1.21-.12-1.82-.17-.48-.08-1.17.41-1.54Z"/>
      <path class="cls-14" d="m22.03,25.92c.29-.22.66-.25,1-.22.34.04.66.13,1,.15.36.02.73-.05,1.08-.2.34-.14.64-.36.89-.62.14-.16.27-.34.41-.49.27-.29.63-.51,1.02-.58.29-.05.63-.01.85.15.12.09.21.19.27.32.02.05.04.09.06.14.12.35.11.78.14,1.23.02.45.08.93.32,1.29.06.1.14.18.23.26.19.16.42.26.64.36.33.14.65.29.89.51s.43.54.33.84c-.12.34-.55.44-.77.73-.29.4-.15.99.08,1.44.14.27.3.53.48.76.23.3.5.57.63.93.19.52,0,1.18-.45,1.51-.54.39-1.34.34-1.9-.03-.01,0-.03-.02-.04-.03-.33-.24-.59-.57-.91-.81-.22-.16-.48-.28-.75-.34-.27-.06-.57-.07-.83.01-.26.08-.46.22-.67.36-.24.18-.48.37-.75.52-.1.06-.2.11-.3.15-.17.07-.35.12-.53.15-.25.04-.52.04-.75-.09-.27-.15-.41-.46-.43-.77-.02-.3.07-.6.19-.88.04-.1.09-.2.14-.3.13-.29.23-.6.15-.89-.1-.36-.44-.55-.75-.69-.04-.01-.07-.03-.11-.04-.29-.11-.6-.22-.82-.46-.36-.39-.36-.97-.3-1.5.07-.64.08-1.05-.09-1.56-.13-.41-.04-.99.38-1.31Z"/>
      <path class="cls-32" d="m22.8,26.54c.24-.18.55-.22.83-.2.28.02.54.09.82.1.29,0,.6-.06.89-.19.28-.12.54-.3.74-.52.12-.13.23-.27.35-.4.23-.23.53-.41.85-.47.25-.04.54-.01.73.13.1.08.16.17.21.28.02.04.03.08.04.12.08.3.06.66.07,1.05,0,.39.06.8.27,1.11.06.08.12.15.2.22.16.14.36.22.56.3.28.12.57.23.78.41s.4.44.32.69c-.09.28-.44.36-.61.6-.23.33-.12.81.06,1.18.11.22.24.43.38.62.18.24.4.47.5.76.14.42,0,.96-.39,1.23-.46.33-1.14.27-1.62-.04-.01,0-.02-.02-.04-.02-.28-.2-.51-.47-.79-.67-.19-.14-.41-.23-.64-.28-.23-.05-.48-.05-.7.02-.21.07-.38.2-.55.33-.2.16-.39.33-.6.47-.08.05-.16.1-.25.14-.14.06-.29.11-.44.14-.21.04-.44.05-.63-.06-.23-.12-.35-.38-.37-.63-.02-.25.05-.5.15-.74.03-.08.07-.17.11-.25.1-.24.19-.5.12-.75-.08-.3-.35-.47-.6-.59-.03-.01-.06-.03-.09-.04-.23-.1-.49-.2-.67-.4-.29-.33-.3-.81-.26-1.25.05-.54.06-.88-.06-1.31-.1-.34,0-.82.35-1.08Z"/>
      <path class="cls-34" d="m23.57,27.16c.19-.14.43-.18.65-.18.22,0,.42.05.64.04.23,0,.47-.07.7-.17.22-.1.43-.24.59-.41.1-.1.19-.21.29-.31.18-.18.42-.32.69-.36.21-.04.46,0,.6.12.08.07.12.15.15.24,0,.03.02.07.02.1.04.25,0,.55,0,.87,0,.32.04.67.22.92.05.07.1.13.17.18.14.11.3.18.47.24.24.09.48.17.67.3s.37.33.32.54-.32.28-.45.47c-.17.26-.08.63.05.91.08.17.17.33.28.48.13.19.29.36.36.59.1.32-.02.73-.32.94-.39.26-.94.2-1.33-.05-.01,0-.02-.01-.03-.02-.24-.16-.43-.38-.66-.54-.16-.11-.34-.18-.53-.22-.19-.04-.4-.03-.57.04-.17.07-.3.18-.42.3-.15.14-.29.29-.46.41-.06.04-.13.09-.19.12-.11.06-.23.11-.36.14-.17.04-.36.05-.52-.04-.18-.1-.28-.3-.31-.5-.02-.2.03-.4.1-.59.03-.07.05-.14.08-.21.08-.2.14-.4.09-.6-.06-.24-.26-.39-.45-.49-.02-.01-.04-.02-.07-.03-.18-.09-.37-.18-.52-.34-.23-.26-.25-.65-.22-1,.03-.44.05-.72-.03-1.05-.06-.27.03-.64.32-.85Z"/>
      <path class="cls-22" d="m24.33,27.78c.14-.11.32-.15.48-.16.16-.01.31,0,.47-.02.17-.02.34-.07.51-.15.16-.08.32-.18.45-.3.08-.07.15-.15.22-.22.14-.13.32-.22.52-.25.17-.03.37,0,.48.11.06.06.08.13.09.21,0,.03,0,.06,0,.08,0,.2-.06.44-.07.69-.01.26.02.54.17.74.04.05.09.1.14.14.11.09.25.14.38.18.19.06.4.11.55.19s.3.21.31.38c-.05.14-.2.2-.28.34-.11.18-.05.44.03.64.05.12.11.24.18.35.08.14.18.26.22.42.06.23-.04.51-.25.65-.31.2-.74.13-1.05-.06,0,0-.02-.01-.02-.02-.19-.12-.35-.28-.53-.4-.13-.08-.27-.14-.42-.16-.15-.03-.31-.01-.45.05-.13.06-.22.16-.3.26-.1.12-.2.25-.32.36-.04.04-.09.08-.14.11-.08.05-.17.1-.27.13-.13.04-.28.05-.41-.01-.14-.07-.22-.22-.24-.36-.02-.15,0-.3.05-.45.02-.05.03-.1.05-.16.05-.15.1-.3.07-.45-.04-.18-.17-.3-.3-.39-.01-.01-.03-.02-.05-.03-.12-.08-.26-.15-.37-.28-.17-.2-.2-.49-.19-.75.01-.34.03-.55,0-.8-.02-.2.07-.46.29-.62Z"/>
      <path class="cls-31" d="m25.1,28.39c.09-.07.2-.11.3-.13.1-.03.19-.04.29-.07.1-.03.21-.08.32-.14.11-.06.21-.12.3-.19.05-.04.11-.09.16-.13.1-.07.22-.13.35-.15s.29,0,.35.1c.03.06.03.11.02.17,0,.02,0,.04-.02.06-.04.15-.11.32-.14.52-.03.19,0,.41.11.56.03.04.07.07.11.1.09.06.19.09.3.12.15.03.31.05.44.09s.27.11.31.23c-.02.08-.08.13-.12.21-.05.11-.02.26.02.38.02.07.05.14.07.21.03.08.07.16.08.25.01.13-.05.29-.18.36-.23.13-.53.06-.77-.07,0,0-.01,0-.02-.01-.14-.08-.27-.19-.41-.26-.1-.05-.2-.09-.31-.1-.11-.01-.23,0-.32.06-.09.06-.13.14-.18.23-.05.1-.1.21-.17.3-.03.03-.05.07-.09.1-.05.05-.11.09-.18.12-.09.04-.2.05-.29.01s-.16-.13-.18-.23c-.03-.1-.02-.2,0-.3,0-.04.02-.07.02-.11.03-.1.05-.21.04-.31-.02-.12-.08-.22-.15-.29,0,0-.02-.02-.02-.03-.07-.07-.15-.13-.21-.22-.11-.14-.14-.32-.15-.5,0-.24.02-.39.04-.54.02-.13.11-.28.26-.39Z"/>
      <path class="cls-17" d="m25.57,29.46c.03.14.14.26.17.41.03.12,0,.25-.01.38s.05.27.17.31c.11.03.22-.04.27-.14s.06-.22.06-.33c0-.07,0-.14.05-.2.04-.05.12-.07.19-.07.17,0,.33.09.48.16s.33.14.5.09.27-.28.16-.4c-.07-.08-.2-.09-.31-.08-.22.02-.47.06-.62-.1-.09-.1-.1-.25-.06-.38s.12-.24.21-.34c.04-.05.09-.11.07-.18-.02-.09-.14-.1-.23-.09-.16.02-.31.06-.44.15-.15.1-.24.26-.38.36-.17.12-.36.18-.3.45Z"/>
    </g>
    <g>
      <path class="cls-36" d="m13.63,38.61c.16.45.42.91.78,1.39l10.61-3.86c-.17-.62-.3-1.06-.4-1.34-.98-2.69-2.73-4.62-5.23-5.79-2.51-1.17-5.12-1.26-7.82-.28-2.77,1.01-4.76,2.8-5.98,5.37-1.22,2.57-1.33,5.23-.33,7.96,1,2.74,2.78,4.7,5.34,5.87s5.22,1.26,7.99.25c2.27-.83,4.07-2.31,5.39-4.44l-5.73-3.34c-.39.93-.94,1.53-1.64,1.78-.86.31-1.69.19-2.49-.36s-1.42-1.44-1.86-2.65c-.42-1.16-.49-2.21-.22-3.15s.85-1.57,1.73-1.89c1.31-.48,2.34-.07,3.09,1.23l-3.55,1.29c0,.68.1,1.33.33,1.96Z"/>
      <path class="cls-36" d="m41.66,22.79c-2.71-.99-5.31-.89-7.82.28-2.51,1.17-4.25,3.1-5.23,5.79-.1.27-.23.72-.4,1.34l10.61,3.86c.36-.48.62-.94.78-1.39.23-.62.34-1.28.33-1.96l-3.55-1.29c.75-1.29,1.78-1.7,3.09-1.23.87.32,1.45.95,1.73,1.89.28.94.21,1.99-.22,3.15-.44,1.21-1.06,2.09-1.86,2.65-.8.56-1.63.68-2.49.36-.7-.25-1.24-.85-1.64-1.78l-5.73,3.34c1.33,2.13,3.13,3.62,5.39,4.44,2.77,1.01,5.43.93,7.99-.25,2.56-1.17,4.34-3.13,5.34-5.87.99-2.73.88-5.38-.33-7.96-1.22-2.57-3.21-4.37-5.98-5.37Z"/>
      <g>
        <path class="cls-8" d="m9.96,35.17c-2.1-5.39-1.86-11.05.23-15.58,1.67-3.63,4.53-6.54,8.31-8.01,10.42-4.28,18.46,1.89,22.24,11.6"/>
        <path class="cls-23" d="m10.02,19.97c.47-1.19,1.36-3.01,3.03-4.79,1.97-2.11,4.09-3.18,5.34-3.69,2.12-.91,3.97-1.18,5.17-1.27,1.43-.1,2.55.02,3.04.08,2.06.26,3.67.91,4.7,1.41"/>
      </g>
    </g>
  </g>
</svg>