<?xml version="1.0" encoding="UTF-8"?>
<svg id="Calque_2" data-name="Calque 2" xmlns="http://www.w3.org/2000/svg" viewBox="0 0 141.19 34.78">
  <defs>
    <style>
      .cls-1 {
        stroke: #1d1d1b;
        stroke-width: 1.34px;
      }

      .cls-1, .cls-2 {
        fill: none;
        stroke-miterlimit: 10;
      }

      .cls-2 {
        stroke: #76c8d6;
        stroke-linecap: round;
        stroke-width: 4.87px;
      }

      .cls-3 {
        fill: #1d1d1b;
        stroke-width: 0px;
      }
    </style>
  </defs>
  <g id="Calque_1-2" data-name="Calque 1">
    <g>
      <path class="cls-3" d="m64.74,24.1l-8.89,3.24c-.3-.4-.52-.79-.65-1.16-.19-.52-.28-1.07-.28-1.64l2.98-1.08c-.63-1.08-1.5-1.43-2.59-1.03-.73.27-1.22.79-1.45,1.58s-.17,1.67.18,2.64.89,1.75,1.56,2.22,1.37.57,2.09.3c.59-.21,1.04-.71,1.37-1.49l4.8,2.8c-1.11,1.79-2.62,3.03-4.52,3.72-2.32.84-4.55.78-6.7-.21s-3.64-2.63-4.47-4.93-.74-4.51.28-6.67,2.69-3.66,5.01-4.51,4.46-.75,6.56.23c2.1.98,3.57,2.6,4.39,4.86.08.23.2.6.34,1.12Z"/>
      <path class="cls-3" d="m67.41,19.11l8.89,3.24c.3-.4.52-.79.65-1.16.19-.52.28-1.07.28-1.64l-2.98-1.08c.63-1.08,1.5-1.43,2.59-1.03.73.27,1.22.79,1.45,1.58s.17,1.67-.18,2.64-.89,1.75-1.56,2.22-1.37.57-2.09.3c-.59-.21-1.04-.71-1.37-1.49l-4.8,2.8c1.11,1.79,2.62,3.03,4.52,3.72,2.32.84,4.55.78,6.7-.21,2.15-.98,3.64-2.63,4.47-4.93s.74-4.51-.28-6.67-2.69-3.66-5.01-4.51-4.46-.75-6.56.23-3.57,2.6-4.39,4.86c-.08.23-.2.6-.34,1.12Z"/>
      <path class="cls-3" d="m6.33,9.09v13.82c0,2.24.81,3.37,2.42,3.37.69,0,1.27-.23,1.75-.7s.72-1.03.72-1.7-.22-1.27-.68-1.73-1-.7-1.66-.7c-.46,0-.99.2-1.59.61v-6.97c.74-.07,1.31-.1,1.69-.1,2.38,0,4.42.86,6.11,2.57s2.55,3.78,2.55,6.19-.86,4.55-2.59,6.24-3.84,2.54-6.36,2.54c-1.26,0-2.5-.28-3.7-.83s-2.19-1.3-2.97-2.23c-1.35-1.62-2.03-3.73-2.03-6.31v-14.06h6.33Z"/>
      <path class="cls-3" d="m26.74,9.09v23.09h-6.33V9.09h6.33Z"/>
      <path class="cls-3" d="m30.45,15.55h6.33v9.52c0,.96.4,1.44,1.2,1.44s1.18-.48,1.18-1.44v-9.52h6.33v9.4c0,2.19-.73,4.03-2.18,5.54s-3.24,2.26-5.35,2.26c-2.4,0-4.34-.87-5.8-2.62-1.14-1.36-1.71-3.26-1.71-5.68v-8.9Z"/>
      <path class="cls-3" d="m96.92,24.41l6.28-.24c-.18,2.44-1.09,4.44-2.72,6s-3.62,2.35-5.97,2.35c-2.48,0-4.58-.86-6.28-2.59s-2.56-3.84-2.56-6.34.86-4.41,2.59-6.11c1.73-1.69,3.79-2.54,6.21-2.54,2.11,0,3.97.67,5.58,2s2.62,3.03,3.01,5.09l-6.41.24c-.55-.72-1.25-1.08-2.1-1.08-.72,0-1.31.24-1.78.71s-.69,1.07-.69,1.79.25,1.35.74,1.84,1.1.74,1.84.74c1.07,0,1.83-.63,2.28-1.88Z"/>
      <path class="cls-3" d="m112.28,9.09v7.05c1.07-.78,2.14-1.17,3.21-1.17,1.62,0,2.91.59,3.87,1.76s1.43,2.76,1.43,4.75v10.69h-6.33v-8.91c0-.72-.08-1.21-.23-1.45s-.45-.37-.89-.37c-.71,0-1.07.52-1.07,1.57v9.17h-6.33V9.09h6.33Z"/>
      <path class="cls-3" d="m132.48,14.96c2.39,0,4.44.86,6.15,2.58,1.71,1.72,2.56,3.78,2.56,6.18s-.87,4.51-2.6,6.22-3.82,2.57-6.27,2.57-4.54-.86-6.28-2.58-2.6-3.79-2.6-6.22.87-4.55,2.6-6.23,3.88-2.53,6.43-2.53Zm-.17,6.24c-.68,0-1.25.25-1.73.74s-.71,1.09-.71,1.8.24,1.3.72,1.79,1.05.74,1.72.74,1.26-.25,1.73-.74.72-1.09.72-1.79-.24-1.31-.71-1.8-1.05-.74-1.74-.74Z"/>
      <path class="cls-1" d="m51.52,24.01c-1.81-4.66-1.6-9.53.2-13.44,1.44-3.13,3.91-5.64,7.17-6.91,8.99-3.69,15.93,1.63,19.19,10.01"/>
      <path class="cls-2" d="m51.58,10.89c.4-1.02,1.17-2.59,2.61-4.14,1.7-1.82,3.53-2.74,4.61-3.19,1.83-.79,3.42-1.02,4.46-1.1,1.23-.09,2.2.01,2.62.07,1.78.23,3.17.78,4.06,1.22"/>
    </g>
  </g>
</svg>