<?xml version="1.0" encoding="UTF-8"?>
<svg id="Calque_2" data-name="Calque 2" xmlns="http://www.w3.org/2000/svg" xmlns:xlink="http://www.w3.org/1999/xlink" viewBox="0 0 141.19 136.36">
  <defs>
    <style>
      .cls-1 {
        stroke: url(#Dégradé_sans_nom_92-6);
      }

      .cls-1, .cls-2, .cls-3, .cls-4, .cls-5, .cls-6, .cls-7, .cls-8, .cls-9, .cls-10, .cls-11, .cls-12, .cls-13, .cls-14, .cls-15, .cls-16, .cls-17, .cls-18, .cls-19, .cls-20, .cls-21, .cls-22, .cls-23, .cls-24, .cls-25, .cls-26, .cls-27, .cls-28, .cls-29, .cls-30, .cls-31, .cls-32, .cls-33, .cls-34 {
        fill: none;
        stroke-miterlimit: 10;
      }

      .cls-1, .cls-2, .cls-3, .cls-4, .cls-5, .cls-6, .cls-7, .cls-8, .cls-9, .cls-10, .cls-12, .cls-13, .cls-14, .cls-16, .cls-17, .cls-18, .cls-19, .cls-20, .cls-21, .cls-22, .cls-23, .cls-24, .cls-25, .cls-26, .cls-27, .cls-28, .cls-29, .cls-30, .cls-31, .cls-32, .cls-33, .cls-34 {
        stroke-width: .75px;
      }

      .cls-2 {
        stroke: url(#Dégradé_sans_nom_92-7);
      }

      .cls-3 {
        stroke: url(#Dégradé_sans_nom_92-5);
      }

      .cls-4 {
        stroke: url(#Dégradé_sans_nom_92-28);
      }

      .cls-5 {
        stroke: url(#Dégradé_sans_nom_92-2);
      }

      .cls-6 {
        stroke: url(#Dégradé_sans_nom_92-26);
      }

      .cls-7 {
        stroke: url(#Dégradé_sans_nom_92-32);
      }

      .cls-8 {
        stroke: url(#Dégradé_sans_nom_92-24);
      }

      .cls-9 {
        stroke: url(#Dégradé_sans_nom_92-3);
      }

      .cls-10 {
        stroke: url(#Dégradé_sans_nom_92-14);
      }

      .cls-11 {
        stroke: #1d1d1b;
        stroke-width: 1.34px;
      }

      .cls-12 {
        stroke: url(#Dégradé_sans_nom_92-15);
      }

      .cls-13 {
        stroke: url(#Dégradé_sans_nom_92-16);
      }

      .cls-14 {
        stroke: url(#Dégradé_sans_nom_92-19);
      }

      .cls-15 {
        stroke: #76c8d6;
        stroke-linecap: round;
        stroke-width: 4.87px;
      }

      .cls-35 {
        opacity: .35;
      }

      .cls-16 {
        stroke: url(#Dégradé_sans_nom_92-31);
      }

      .cls-17 {
        stroke: url(#Dégradé_sans_nom_92-27);
      }

      .cls-18 {
        stroke: url(#Dégradé_sans_nom_92-11);
      }

      .cls-19 {
        stroke: url(#Dégradé_sans_nom_92-8);
      }

      .cls-20 {
        stroke: url(#Dégradé_sans_nom_92-23);
      }

      .cls-21 {
        stroke: url(#Dégradé_sans_nom_92-13);
      }

      .cls-22 {
        stroke: url(#Dégradé_sans_nom_92-22);
      }

      .cls-23 {
        stroke: url(#Dégradé_sans_nom_92-20);
      }

      .cls-24 {
        stroke: url(#Dégradé_sans_nom_92-21);
      }

      .cls-25 {
        stroke: url(#Dégradé_sans_nom_92-25);
      }

      .cls-26 {
        stroke: url(#Dégradé_sans_nom_92-10);
      }

      .cls-27 {
        stroke: url(#Dégradé_sans_nom_92-12);
      }

      .cls-28 {
        stroke: url(#Dégradé_sans_nom_92-18);
      }

      .cls-29 {
        stroke: url(#Dégradé_sans_nom_92-4);
      }

      .cls-30 {
        stroke: url(#Dégradé_sans_nom_92-17);
      }

      .cls-31 {
        stroke: url(#Dégradé_sans_nom_92);
      }

      .cls-32 {
        stroke: url(#Dégradé_sans_nom_92-30);
      }

      .cls-36 {
        fill: #1d1d1b;
        stroke-width: 0px;
      }

      .cls-33 {
        stroke: url(#Dégradé_sans_nom_92-29);
      }

      .cls-34 {
        stroke: url(#Dégradé_sans_nom_92-9);
      }
    </style>
    <linearGradient id="Dégradé_sans_nom_92" data-name="Dégradé sans nom 92" x1="5.98" y1="68.18" x2="128.83" y2="68.18" gradientUnits="userSpaceOnUse">
      <stop offset="0" stop-color="#74c8d6"/>
      <stop offset=".5" stop-color="#354798"/>
      <stop offset="1" stop-color="#e484b5"/>
    </linearGradient>
    <linearGradient id="Dégradé_sans_nom_92-2" data-name="Dégradé sans nom 92" x1="7.88" y1="68.16" x2="126.93" y2="68.16" xlink:href="#Dégradé_sans_nom_92"/>
    <linearGradient id="Dégradé_sans_nom_92-3" data-name="Dégradé sans nom 92" x1="9.79" y1="68.15" x2="125.03" y2="68.15" xlink:href="#Dégradé_sans_nom_92"/>
    <linearGradient id="Dégradé_sans_nom_92-4" data-name="Dégradé sans nom 92" x1="11.69" y1="68.13" x2="123.13" y2="68.13" xlink:href="#Dégradé_sans_nom_92"/>
    <linearGradient id="Dégradé_sans_nom_92-5" data-name="Dégradé sans nom 92" x1="13.59" y1="68.11" x2="121.23" y2="68.11" xlink:href="#Dégradé_sans_nom_92"/>
    <linearGradient id="Dégradé_sans_nom_92-6" data-name="Dégradé sans nom 92" x1="15.5" y1="68.09" x2="119.33" y2="68.09" xlink:href="#Dégradé_sans_nom_92"/>
    <linearGradient id="Dégradé_sans_nom_92-7" data-name="Dégradé sans nom 92" x1="17.4" y1="68.07" x2="117.43" y2="68.07" xlink:href="#Dégradé_sans_nom_92"/>
    <linearGradient id="Dégradé_sans_nom_92-8" data-name="Dégradé sans nom 92" x1="19.3" y1="68.05" x2="115.53" y2="68.05" xlink:href="#Dégradé_sans_nom_92"/>
    <linearGradient id="Dégradé_sans_nom_92-9" data-name="Dégradé sans nom 92" x1="21.21" y1="68.04" x2="113.64" y2="68.04" xlink:href="#Dégradé_sans_nom_92"/>
    <linearGradient id="Dégradé_sans_nom_92-10" data-name="Dégradé sans nom 92" x1="23.11" y1="68.02" x2="111.74" y2="68.02" xlink:href="#Dégradé_sans_nom_92"/>
    <linearGradient id="Dégradé_sans_nom_92-11" data-name="Dégradé sans nom 92" x1="25.01" y1="68" x2="109.84" y2="68" xlink:href="#Dégradé_sans_nom_92"/>
    <linearGradient id="Dégradé_sans_nom_92-12" data-name="Dégradé sans nom 92" x1="26.91" y1="67.98" x2="107.94" y2="67.98" xlink:href="#Dégradé_sans_nom_92"/>
    <linearGradient id="Dégradé_sans_nom_92-13" data-name="Dégradé sans nom 92" x1="28.82" y1="67.96" x2="106.04" y2="67.96" xlink:href="#Dégradé_sans_nom_92"/>
    <linearGradient id="Dégradé_sans_nom_92-14" data-name="Dégradé sans nom 92" x1="30.72" y1="67.95" x2="104.14" y2="67.95" xlink:href="#Dégradé_sans_nom_92"/>
    <linearGradient id="Dégradé_sans_nom_92-15" data-name="Dégradé sans nom 92" x1="32.62" y1="67.93" x2="102.24" y2="67.93" xlink:href="#Dégradé_sans_nom_92"/>
    <linearGradient id="Dégradé_sans_nom_92-16" data-name="Dégradé sans nom 92" x1="34.52" y1="67.91" x2="100.34" y2="67.91" xlink:href="#Dégradé_sans_nom_92"/>
    <linearGradient id="Dégradé_sans_nom_92-17" data-name="Dégradé sans nom 92" x1="36.42" y1="67.89" x2="98.44" y2="67.89" xlink:href="#Dégradé_sans_nom_92"/>
    <linearGradient id="Dégradé_sans_nom_92-18" data-name="Dégradé sans nom 92" x1="38.33" y1="67.87" x2="96.54" y2="67.87" xlink:href="#Dégradé_sans_nom_92"/>
    <linearGradient id="Dégradé_sans_nom_92-19" data-name="Dégradé sans nom 92" x1="40.23" y1="67.86" x2="94.64" y2="67.86" xlink:href="#Dégradé_sans_nom_92"/>
    <linearGradient id="Dégradé_sans_nom_92-20" data-name="Dégradé sans nom 92" x1="42.13" y1="67.84" x2="92.74" y2="67.84" xlink:href="#Dégradé_sans_nom_92"/>
    <linearGradient id="Dégradé_sans_nom_92-21" data-name="Dégradé sans nom 92" x1="44.03" y1="67.82" x2="90.84" y2="67.82" xlink:href="#Dégradé_sans_nom_92"/>
    <linearGradient id="Dégradé_sans_nom_92-22" data-name="Dégradé sans nom 92" x1="45.93" y1="67.8" x2="88.94" y2="67.8" xlink:href="#Dégradé_sans_nom_92"/>
    <linearGradient id="Dégradé_sans_nom_92-23" data-name="Dégradé sans nom 92" x1="47.83" y1="67.78" x2="87.04" y2="67.78" xlink:href="#Dégradé_sans_nom_92"/>
    <linearGradient id="Dégradé_sans_nom_92-24" data-name="Dégradé sans nom 92" x1="49.73" y1="67.77" x2="85.14" y2="67.77" xlink:href="#Dégradé_sans_nom_92"/>
    <linearGradient id="Dégradé_sans_nom_92-25" data-name="Dégradé sans nom 92" x1="51.63" y1="67.75" x2="83.24" y2="67.75" xlink:href="#Dégradé_sans_nom_92"/>
    <linearGradient id="Dégradé_sans_nom_92-26" data-name="Dégradé sans nom 92" x1="53.53" y1="67.73" x2="81.34" y2="67.73" xlink:href="#Dégradé_sans_nom_92"/>
    <linearGradient id="Dégradé_sans_nom_92-27" data-name="Dégradé sans nom 92" x1="55.43" y1="67.71" x2="79.45" y2="67.71" xlink:href="#Dégradé_sans_nom_92"/>
    <linearGradient id="Dégradé_sans_nom_92-28" data-name="Dégradé sans nom 92" x1="57.32" y1="67.69" x2="77.55" y2="67.69" xlink:href="#Dégradé_sans_nom_92"/>
    <linearGradient id="Dégradé_sans_nom_92-29" data-name="Dégradé sans nom 92" x1="59.21" y1="67.71" x2="75.65" y2="67.71" xlink:href="#Dégradé_sans_nom_92"/>
    <linearGradient id="Dégradé_sans_nom_92-30" data-name="Dégradé sans nom 92" x1="61.08" y1="67.87" x2="73.75" y2="67.87" xlink:href="#Dégradé_sans_nom_92"/>
    <linearGradient id="Dégradé_sans_nom_92-31" data-name="Dégradé sans nom 92" x1="62.84" y1="68.02" x2="71.87" y2="68.02" xlink:href="#Dégradé_sans_nom_92"/>
    <linearGradient id="Dégradé_sans_nom_92-32" data-name="Dégradé sans nom 92" x1="64.59" y1="68.18" x2="70.22" y2="68.18" xlink:href="#Dégradé_sans_nom_92"/>
  </defs>
  <g id="Calque_1-2" data-name="Calque 1">
    <g>
      <g class="cls-35">
        <path class="cls-31" d="m10.63,22.64c3.54-2.73,8.51-2.77,12.87-1.76,4.36,1.01,8.49,2.92,12.9,3.69,9.12,1.6,18.98-2.16,24.7-9.44,1.69-2.14,3.02-4.54,4.72-6.68,3.09-3.91,7.47-6.91,12.38-7.81s10.3.46,13.81,4.01c8.17,8.24,3.71,23.85,11.97,32,1.93,1.9,4.37,3.18,6.72,4.55,3.38,1.97,6.7,4.27,8.84,7.54s2.89,7.7.96,11.1c-2.49,4.4-8.37,5.71-11.55,9.64-4.32,5.34-2.22,13.35,1.15,19.33,2.03,3.62,4.46,7.01,7.21,10.12,3.51,3.96,7.65,7.57,9.78,12.42,3.09,7.05.88,16.04-5.12,20.86-6,4.82-15.26,5.04-21.48.51-3.94-2.87-6.53-7.24-10.21-10.44-4.84-4.2-11.55-6.16-17.88-5.22-6.86,1.02-12.83,5.14-19.38,7.44-3.35,1.18-6.87,1.87-10.42,2.06-2.95.16-6.07-.08-8.57-1.66-3.23-2.05-4.81-6.06-4.75-9.88s1.56-7.47,3.38-10.83c2.48-4.57,5.72-9.66,3.96-14.55-1.56-4.32-6.4-6.4-10.85-7.51s-9.32-1.88-12.58-5.11c-4.61-4.59-4.07-12.08-3.01-18.5,1.24-7.46,1.12-12.39-2.17-19.01-2.6-5.24-2.37-13.02,2.64-16.88Z"/>
        <path class="cls-5" d="m12.41,24.07c3.43-2.65,8.24-2.68,12.46-1.71,4.22.97,8.22,2.82,12.49,3.57,4.49.79,9.16.23,13.4-1.44,4.1-1.61,7.79-4.25,10.52-7.71,1.63-2.08,2.93-4.4,4.57-6.47,3-3.78,7.24-6.69,11.99-7.56,3.07-.56,6.33-.21,9.17,1.03,1.56.69,3,1.64,4.2,2.86.46.47.89.97,1.27,1.48,2.72,3.66,3.57,8.4,4.33,13.2.75,4.76,1.41,9.58,3.7,13.43.62,1.05,1.37,2.03,2.27,2.91,1.87,1.85,4.24,3.08,6.51,4.4,3.27,1.91,6.5,4.13,8.58,7.3,2.08,3.16,2.81,7.45.96,10.75-2.41,4.26-8.1,5.53-11.18,9.34-4.18,5.17-2.15,12.92,1.11,18.72,1.97,3.5,4.31,6.79,6.98,9.8,3.4,3.84,7.4,7.33,9.46,12.03,2.98,6.83.84,15.53-4.97,20.2-5.82,4.67-14.79,4.88-20.82.48-3.82-2.78-6.34-7.01-9.91-10.11-2.28-1.98-4.99-3.44-7.88-4.32-3.05-.93-6.3-1.2-9.46-.73-3.04.45-5.89,1.54-8.7,2.79-3.34,1.49-6.62,3.23-10.06,4.44-1.25.44-2.52.81-3.81,1.11-2.06.48-4.17.78-6.28.9-2.86.16-5.88-.07-8.31-1.61-3.12-1.98-4.67-5.87-4.6-9.57.06-3.7,1.51-7.24,3.27-10.49.61-1.12,1.26-2.28,1.88-3.45,1.8-3.46,3.23-7.11,1.96-10.64-1.51-4.18-6.19-6.21-10.5-7.28-.46-.11-.92-.23-1.39-.34-3.91-.93-7.97-1.82-10.79-4.62-4.46-4.44-3.95-11.7-2.92-17.92,1.2-7.23,1.08-12-2.09-18.41-2.51-5.08-2.28-12.61,2.57-16.35Z"/>
        <path class="cls-9" d="m14.18,25.5c3.32-2.56,7.97-2.6,12.06-1.66,4.09.94,7.96,2.72,12.09,3.44,4.34.76,8.86.21,12.97-1.4,3.97-1.56,7.54-4.11,10.18-7.46,1.58-2.01,2.84-4.25,4.43-6.26,2.9-3.66,7.01-6.47,11.61-7.31,2.97-.55,6.14-.21,8.88,1,1.51.67,2.9,1.59,4.06,2.78.45.46.86.94,1.23,1.44,2.62,3.54,3.44,8.14,4.17,12.79.72,4.61,1.36,9.28,3.58,13.01.6,1.02,1.33,1.96,2.2,2.82,1.81,1.79,4.11,2.98,6.31,4.26,3.17,1.84,6.3,4,8.32,7.05,2.02,3.06,2.74,7.2.95,10.4-2.33,4.12-7.82,5.35-10.8,9.03-4.04,5-2.07,12.5,1.08,18.1,1.9,3.39,4.17,6.57,6.74,9.48,3.29,3.71,7.15,7.09,9.14,11.63,2.88,6.6.81,15.02-4.81,19.53-5.64,4.52-14.32,4.71-20.17.46-3.7-2.69-6.14-6.79-9.6-9.78-2.21-1.91-4.83-3.33-7.63-4.18-2.96-.9-6.1-1.16-9.16-.7-2.94.44-5.7,1.5-8.41,2.71-3.23,1.45-6.4,3.13-9.73,4.31-1.21.43-2.44.79-3.69,1.08-1.99.47-4.03.76-6.08.88-2.77.15-5.7-.07-8.04-1.55-3.02-1.92-4.52-5.68-4.46-9.26.06-3.58,1.45-7.01,3.16-10.16.59-1.09,1.22-2.21,1.81-3.34,1.74-3.35,3.12-6.88,1.89-10.3-1.46-4.05-5.99-6.01-10.15-7.06-.44-.11-.89-.22-1.34-.33-3.78-.9-7.71-1.77-10.43-4.48-4.32-4.3-3.83-11.33-2.83-17.34,1.16-7,1.05-11.62-2.02-17.82-2.43-4.91-2.19-12.19,2.5-15.82Z"/>
        <path class="cls-29" d="m15.96,26.93c3.21-2.48,7.7-2.52,11.65-1.61,3.95.9,7.69,2.62,11.68,3.31,4.19.73,8.56.2,12.53-1.36,3.83-1.51,7.29-3.98,9.84-7.21,1.53-1.94,2.74-4.11,4.28-6.04,2.81-3.53,6.78-6.25,11.22-7.06,2.88-.53,5.94-.2,8.59.98,1.46.65,2.8,1.55,3.92,2.69.43.44.82.91,1.18,1.39,2.52,3.43,3.31,7.87,4.01,12.37.7,4.46,1.31,8.98,3.47,12.6.59.98,1.28,1.9,2.13,2.73,1.76,1.73,3.98,2.88,6.11,4.12,3.07,1.78,6.1,3.86,8.06,6.81,1.96,2.95,2.67,6.96.94,10.05-2.24,3.99-7.55,5.17-10.42,8.72-3.9,4.83-2,12.07,1.04,17.49,1.84,3.27,4.02,6.35,6.51,9.15,3.17,3.58,6.91,6.85,8.82,11.24,2.78,6.38.78,14.5-4.65,18.86-5.46,4.37-13.86,4.55-19.51.44-3.58-2.6-5.94-6.56-9.29-9.46-2.14-1.85-4.68-3.22-7.38-4.04-2.86-.87-5.91-1.12-8.86-.67-2.84.43-5.51,1.45-8.13,2.64-3.12,1.41-6.18,3.04-9.39,4.18-1.17.41-2.36.77-3.56,1.05-1.93.46-3.9.74-5.88.86-2.68.15-5.51-.06-7.78-1.49-2.92-1.85-4.37-5.49-4.31-8.95.05-3.46,1.4-6.77,3.05-9.82.57-1.05,1.18-2.13,1.75-3.23,1.68-3.24,3.02-6.65,1.83-9.96-1.41-3.91-5.78-5.81-9.8-6.83-.43-.11-.86-.21-1.3-.32-3.65-.87-7.45-1.72-10.08-4.34-4.17-4.16-3.7-10.95-2.74-16.76,1.12-6.77,1.01-11.24-1.94-17.23-2.34-4.75-2.11-11.78,2.43-15.28Z"/>
        <path class="cls-3" d="m17.74,28.36c3.1-2.39,7.44-2.43,11.25-1.57,3.81.87,7.42,2.52,11.27,3.18,4.05.7,8.27.19,12.09-1.32,3.7-1.46,7.04-3.84,9.5-6.96,1.48-1.87,2.65-3.96,4.14-5.83,2.71-3.41,6.55-6.03,10.84-6.81,2.78-.51,5.75-.19,8.31.95,1.41.63,2.7,1.5,3.77,2.61.42.43.79.88,1.14,1.35,2.43,3.31,3.18,7.61,3.85,11.96.67,4.31,1.26,8.68,3.35,12.18.57.95,1.24,1.84,2.06,2.64,1.7,1.67,3.85,2.78,5.91,3.98,2.97,1.72,5.9,3.72,7.8,6.56,1.9,2.84,2.6,6.71.93,9.69-2.15,3.85-7.28,4.99-10.05,8.42-3.76,4.66-1.93,11.65,1,16.87,1.77,3.16,3.88,6.12,6.27,8.83,3.06,3.46,6.66,6.61,8.5,10.84,2.68,6.15.74,13.99-4.5,18.19-5.28,4.21-13.39,4.39-18.86.41-3.46-2.51-5.75-6.33-8.98-9.13-2.07-1.79-4.52-3.11-7.14-3.9-2.76-.83-5.71-1.07-8.56-.64-2.74.42-5.31,1.41-7.84,2.56-3.01,1.36-5.96,2.94-9.06,4.05-1.13.4-2.27.74-3.44,1.02-1.86.44-3.76.72-5.67.83-2.59.15-5.32-.05-7.52-1.44-2.82-1.79-4.22-5.3-4.17-8.64.05-3.34,1.35-6.54,2.93-9.48.55-1.01,1.14-2.06,1.69-3.12,1.62-3.13,2.91-6.42,1.76-9.62-1.36-3.78-5.57-5.62-9.45-6.6-.41-.1-.83-.21-1.25-.31-3.52-.85-7.18-1.67-9.72-4.2-4.03-4.02-3.58-10.57-2.65-16.18,1.07-6.54.97-10.86-1.87-16.64-2.25-4.59-2.02-11.37,2.36-14.75Z"/>
        <path class="cls-1" d="m19.51,29.8c2.99-2.31,7.17-2.35,10.84-1.52,3.67.83,7.15,2.42,10.86,3.05,3.9.67,7.97.17,11.66-1.28,3.57-1.4,6.79-3.7,9.16-6.71,1.43-1.8,2.56-3.82,3.99-5.62,2.62-3.29,6.32-5.8,10.45-6.57,2.68-.49,5.55-.18,8.02.92,1.36.61,2.6,1.45,3.63,2.52.4.41.76.85,1.09,1.3,2.33,3.2,3.04,7.35,3.69,11.55.64,4.16,1.22,8.38,3.23,11.76.55.92,1.2,1.77,1.99,2.55,1.64,1.61,3.72,2.68,5.71,3.83,2.87,1.65,5.7,3.58,7.54,6.32,1.84,2.74,2.52,6.47.92,9.34-2.07,3.71-7.01,4.81-9.67,8.11-3.62,4.49-1.86,11.22.96,16.26,1.7,3.04,3.73,5.9,6.04,8.51,2.94,3.33,6.41,6.37,8.18,10.45,2.58,5.93.71,13.48-4.34,17.53-5.09,4.06-12.92,4.22-18.2.39-3.34-2.43-5.55-6.11-8.67-8.8-2-1.72-4.36-2.99-6.89-3.75-2.67-.8-5.51-1.03-8.26-.61-2.65.41-5.12,1.37-7.55,2.48-2.9,1.32-5.74,2.85-8.73,3.92-1.08.39-2.19.72-3.31.99-1.79.43-3.63.7-5.47.81-2.5.15-5.14-.05-7.25-1.38-2.72-1.72-4.07-5.1-4.03-8.33.05-3.22,1.29-6.31,2.82-9.14.53-.98,1.1-1.99,1.63-3.01,1.56-3.02,2.8-6.19,1.7-9.28-1.3-3.64-5.36-5.42-9.1-6.37-.4-.1-.8-.2-1.21-.3-3.39-.82-6.92-1.61-9.37-4.06-3.88-3.88-3.45-10.19-2.56-15.6,1.03-6.31.94-10.47-1.79-16.05-2.16-4.42-1.93-10.96,2.3-14.22Z"/>
        <path class="cls-2" d="m21.29,31.23c2.88-2.22,6.9-2.26,10.43-1.47,3.53.79,6.88,2.32,10.46,2.92,3.76.64,7.67.16,11.22-1.24,3.44-1.35,6.53-3.57,8.83-6.46,1.37-1.73,2.47-3.68,3.85-5.4,2.52-3.16,6.08-5.58,10.07-6.32,2.59-.47,5.35-.18,7.73.89,1.31.59,2.5,1.4,3.49,2.44.38.4.73.82,1.05,1.25,2.23,3.08,2.91,7.08,3.53,11.13.61,4.02,1.17,8.09,3.11,11.34.53.88,1.16,1.71,1.92,2.45,1.58,1.55,3.59,2.59,5.51,3.69,2.77,1.59,5.5,3.44,7.28,6.07,1.78,2.63,2.45,6.22.92,8.99-1.98,3.57-6.73,4.62-9.3,7.81-3.48,4.32-1.78,10.8.93,15.64,1.64,2.93,3.59,5.68,5.8,8.19,2.83,3.21,6.16,6.13,7.86,10.05,2.47,5.7.68,12.97-4.18,16.86-4.91,3.91-12.46,4.06-17.54.37-3.22-2.34-5.35-5.88-8.37-8.47-1.93-1.66-4.21-2.88-6.64-3.61-2.57-.77-5.31-.99-7.95-.58-2.55.4-4.93,1.33-7.27,2.4-2.78,1.28-5.52,2.75-8.4,3.8-1.04.38-2.11.7-3.19.96-1.73.42-3.49.68-5.27.79-2.41.14-4.95-.04-6.99-1.33-2.62-1.66-3.92-4.91-3.88-8.01.04-3.1,1.24-6.07,2.71-8.8.51-.94,1.05-1.91,1.56-2.9,1.5-2.91,2.69-5.97,1.63-8.93-1.25-3.51-5.16-5.22-8.75-6.14-.38-.1-.77-.19-1.16-.29-3.26-.79-6.66-1.56-9.01-3.92-3.74-3.74-3.33-9.81-2.47-15.03.99-6.08.9-10.09-1.72-15.46-2.07-4.26-1.84-10.54,2.23-13.69Z"/>
        <path class="cls-19" d="m23.06,32.66c2.77-2.13,6.63-2.18,10.03-1.42,3.4.76,6.62,2.21,10.05,2.79,3.61.61,7.37.14,10.78-1.2,3.3-1.3,6.28-3.43,8.49-6.21,1.32-1.67,2.37-3.53,3.7-5.19,2.43-3.04,5.85-5.36,9.68-6.07,2.49-.46,5.16-.17,7.44.87,1.26.57,2.4,1.36,3.34,2.35.37.38.7.79,1,1.21,2.13,2.97,2.78,6.82,3.37,10.72.58,3.87,1.12,7.79,2.99,10.92.51.85,1.12,1.64,1.85,2.36,1.53,1.49,3.46,2.49,5.31,3.55,2.67,1.53,5.3,3.3,7.02,5.83,1.72,2.53,2.38,5.97.91,8.64-1.89,3.43-6.46,4.44-8.92,7.5-3.34,4.15-1.71,10.37.89,15.03,1.57,2.81,3.44,5.45,5.57,7.87,2.71,3.08,5.91,5.89,7.54,9.66,2.37,5.48.64,12.45-4.03,16.19-4.73,3.76-11.99,3.9-16.89.35-3.1-2.25-5.16-5.65-8.06-8.15-1.85-1.59-4.05-2.77-6.39-3.47-2.47-.74-5.11-.95-7.65-.55-2.45.39-4.74,1.29-6.98,2.32-2.67,1.23-5.3,2.66-8.06,3.67-1,.37-2.03.67-3.06.93-1.66.4-3.36.66-5.07.77-2.31.14-4.76-.03-6.73-1.27-2.52-1.59-3.77-4.72-3.74-7.7.04-2.98,1.19-5.84,2.59-8.47.49-.91,1.01-1.84,1.5-2.79,1.44-2.8,2.59-5.74,1.57-8.59-1.2-3.37-4.95-5.02-8.4-5.92-.37-.1-.74-.19-1.11-.28-3.13-.77-6.39-1.51-8.66-3.77-3.59-3.59-3.2-9.44-2.38-14.45.95-5.85.87-9.71-1.64-14.86-1.98-4.09-1.76-10.13,2.16-13.15Z"/>
        <path class="cls-34" d="m24.84,34.09c2.66-2.05,6.36-2.1,9.62-1.37,3.26.72,6.35,2.11,9.64,2.67,3.46.58,7.07.13,10.35-1.16,3.17-1.25,6.03-3.29,8.15-5.96,1.27-1.6,2.28-3.39,3.56-4.98,2.33-2.91,5.62-5.14,9.3-5.82,2.4-.44,4.96-.16,7.15.84,1.21.55,2.29,1.31,3.2,2.27.35.37.67.76.96,1.16,2.04,2.86,2.65,6.55,3.21,10.3.56,3.72,1.07,7.49,2.87,10.5.49.82,1.08,1.58,1.78,2.27,1.47,1.43,3.32,2.39,5.11,3.4,2.57,1.47,5.1,3.16,6.75,5.58,1.66,2.42,2.31,5.72.9,8.29-1.81,3.3-6.19,4.26-8.55,7.2-3.2,3.98-1.64,9.95.85,14.41,1.51,2.7,3.3,5.23,5.33,7.55,2.6,2.96,5.66,5.65,7.22,9.26,2.27,5.25.62,11.95-3.87,15.52s-11.52,3.73-16.23.32c-2.98-2.16-4.96-5.43-7.75-7.82-1.78-1.53-3.9-2.66-6.15-3.33-2.38-.71-4.91-.91-7.35-.52-2.35.38-4.54,1.25-6.7,2.25-2.56,1.19-5.08,2.56-7.73,3.54-.96.35-1.94.65-2.94.9-1.59.39-3.22.64-4.87.75-2.22.14-4.57-.03-6.46-1.21-2.42-1.53-3.63-4.53-3.59-7.39.03-2.86,1.13-5.6,2.48-8.13.47-.87.97-1.77,1.44-2.68,1.38-2.68,2.48-5.51,1.51-8.25-1.15-3.24-4.74-4.83-8.05-5.69-.35-.09-.71-.18-1.07-.27-3-.74-6.13-1.46-8.3-3.63-3.45-3.45-3.08-9.06-2.3-13.87.9-5.62.83-9.32-1.57-14.27-1.9-3.93-1.67-9.72,2.09-12.62Z"/>
        <path class="cls-26" d="m26.62,35.52c2.55-1.96,6.1-2.01,9.22-1.32,3.12.69,6.08,2.01,9.23,2.54,3.32.55,6.77.12,9.91-1.13,3.04-1.2,5.78-3.15,7.81-5.71,1.22-1.53,2.19-3.24,3.41-4.76,2.24-2.79,5.39-4.92,8.91-5.57,2.3-.42,4.77-.16,6.87.81,1.16.53,2.19,1.26,3.06,2.18.33.35.64.73.91,1.12,1.94,2.74,2.51,6.29,3.05,9.89.53,3.57,1.02,7.19,2.75,10.08.47.79,1.03,1.52,1.71,2.18,1.41,1.38,3.19,2.29,4.91,3.26,2.47,1.4,4.9,3.03,6.49,5.34,1.6,2.31,2.23,5.48.89,7.93-1.72,3.16-5.92,4.08-8.17,6.89-3.06,3.81-1.57,9.52.82,13.8,1.44,2.58,3.15,5.01,5.1,7.23,2.48,2.83,5.41,5.41,6.9,8.87,2.17,5.03.58,11.44-3.71,14.86s-11.06,3.57-15.58.3c-2.86-2.07-4.76-5.2-7.44-7.49-1.71-1.46-3.74-2.55-5.9-3.19-2.28-.68-4.71-.87-7.05-.49-2.25.37-4.35,1.21-6.41,2.17-2.45,1.14-4.86,2.47-7.4,3.41-.92.34-1.86.63-2.81.87-1.53.38-3.09.62-4.66.73-2.13.14-4.39-.02-6.2-1.16-2.32-1.46-3.48-4.34-3.45-7.08.03-2.74,1.08-5.37,2.37-7.79.44-.84.93-1.69,1.37-2.57,1.32-2.57,2.37-5.28,1.44-7.91-1.1-3.11-4.53-4.63-7.7-5.46-.34-.09-.68-.17-1.02-.26-2.87-.71-5.87-1.4-7.95-3.49-3.3-3.31-2.95-8.68-2.21-13.29.86-5.39.8-8.94-1.49-13.68-1.81-3.76-1.58-9.31,2.03-12.09Z"/>
        <path class="cls-18" d="m28.39,36.95c2.44-1.88,5.83-1.93,8.81-1.28,2.98.65,5.81,1.91,8.83,2.41,3.17.52,6.47.1,9.48-1.09,2.9-1.15,5.52-3.02,7.47-5.46,1.17-1.46,2.1-3.1,3.27-4.55,2.14-2.66,5.16-4.7,8.53-5.32,2.21-.4,4.57-.15,6.58.78,1.1.51,2.09,1.21,2.92,2.09.32.34.6.7.87,1.07,1.84,2.63,2.38,6.03,2.89,9.48.5,3.42.97,6.9,2.64,9.66.45.75.99,1.45,1.64,2.08,1.35,1.32,3.06,2.19,4.7,3.12,2.37,1.34,4.7,2.89,6.23,5.1,1.53,2.21,2.16,5.23.88,7.58-1.64,3.02-5.64,3.9-7.79,6.59-2.92,3.64-1.5,9.1.78,13.18,1.37,2.47,3.01,4.79,4.86,6.91,2.37,2.7,5.16,5.17,6.58,8.47,2.07,4.8.55,10.93-3.56,14.19s-10.59,3.41-14.92.28c-2.74-1.98-4.57-4.98-7.13-7.17-1.64-1.4-3.58-2.43-5.65-3.05-2.18-.65-4.51-.83-6.75-.46-2.16.35-4.16,1.16-6.13,2.09-2.34,1.1-4.64,2.37-7.06,3.28-.88.33-1.78.61-2.69.84-1.46.37-2.95.6-4.46.7-2.04.13-4.2-.01-5.94-1.1-2.22-1.4-3.33-4.15-3.3-6.77.02-2.62,1.03-5.14,2.26-7.45.42-.8.88-1.62,1.31-2.46,1.26-2.46,2.27-5.05,1.38-7.56-1.05-2.97-4.33-4.43-7.35-5.23-.32-.09-.65-.17-.98-.25-2.74-.69-5.61-1.35-7.59-3.35-3.15-3.17-2.83-8.3-2.12-12.71.82-5.16.76-8.56-1.42-13.09-1.72-3.6-1.49-8.9,1.96-11.56Z"/>
        <path class="cls-27" d="m30.17,38.38c2.32-1.79,5.56-1.85,8.41-1.23,2.85.62,5.54,1.81,8.42,2.28,3.02.49,6.17.09,9.04-1.05,2.77-1.1,5.27-2.88,7.13-5.21,1.11-1.39,2-2.95,3.12-4.34,2.05-2.54,4.93-4.48,8.14-5.07,2.11-.39,4.38-.14,6.29.75,1.05.49,1.99,1.16,2.77,2.01.3.33.57.67.82,1.02,1.75,2.51,2.25,5.76,2.73,9.06.47,3.27.92,6.6,2.52,9.25.43.72.95,1.39,1.57,1.99,1.29,1.26,2.93,2.09,4.5,2.98,2.27,1.28,4.5,2.75,5.97,4.85,1.47,2.1,2.09,4.98.88,7.23-1.55,2.88-5.37,3.72-7.42,6.28-2.78,3.47-1.42,8.67.74,12.57,1.31,2.35,2.86,4.56,4.63,6.58,2.26,2.58,4.91,4.93,6.26,8.08,1.96,4.58.52,10.41-3.4,13.52s-10.12,3.24-14.26.26c-2.62-1.89-4.37-4.75-6.83-6.84-1.57-1.34-3.43-2.32-5.4-2.91-2.09-.62-4.31-.78-6.45-.43-2.06.34-3.96,1.12-5.84,2.01-2.23,1.06-4.42,2.28-6.73,3.15-.84.32-1.7.58-2.57.81-1.39.35-2.82.58-4.26.68-1.95.13-4.01,0-5.68-1.04-2.12-1.33-3.18-3.95-3.16-6.46.02-2.5.97-4.9,2.14-7.11.4-.76.84-1.55,1.25-2.35,1.2-2.35,2.16-4.82,1.31-7.22-1-2.84-4.12-4.24-7-5-.31-.08-.62-.16-.93-.24-2.61-.66-5.34-1.3-7.24-3.21-3.01-3.03-2.7-7.93-2.03-12.14.78-4.93.73-8.17-1.34-12.5-1.63-3.43-1.41-8.48,1.89-11.02Z"/>
        <path class="cls-21" d="m31.94,39.81c2.21-1.71,5.29-1.76,8-1.18,2.71.58,5.27,1.71,8.01,2.15,2.88.46,5.87.07,8.6-1.01,2.64-1.05,5.02-2.74,6.79-4.95,1.06-1.33,1.91-2.81,2.98-4.13,1.95-2.41,4.69-4.26,7.76-4.82,2.02-.37,4.18-.13,6,.73,1,.47,1.89,1.12,2.63,1.92.28.31.54.64.78.98,1.65,2.4,2.12,5.5,2.56,8.65.44,3.12.87,6.3,2.4,8.83.41.69.91,1.32,1.5,1.9,1.24,1.2,2.8,1.99,4.3,2.83,2.17,1.21,4.3,2.61,5.71,4.61,1.41,2,2.01,4.74.87,6.88-1.47,2.74-5.1,3.54-7.04,5.98-2.64,3.3-1.35,8.25.7,11.95,1.24,2.24,2.72,4.34,4.4,6.26,2.14,2.45,4.66,4.69,5.94,7.68,1.86,4.35.49,9.9-3.24,12.85s-9.66,3.08-13.61.23c-2.5-1.8-4.17-4.52-6.52-6.51-1.5-1.27-3.27-2.21-5.16-2.77-1.99-.59-4.12-.74-6.15-.4-1.96.33-3.77,1.08-5.55,1.93-2.12,1.01-4.2,2.19-6.4,3.02-.8.3-1.61.56-2.44.77-1.32.34-2.69.56-4.06.66-1.86.13-3.83,0-5.41-.99-2.02-1.27-3.03-3.76-3.02-6.14.02-2.38.92-4.67,2.03-6.78.38-.73.8-1.48,1.19-2.24,1.14-2.24,2.05-4.59,1.25-6.88-.95-2.7-3.91-4.04-6.65-4.78-.29-.08-.59-.15-.88-.23-2.48-.63-5.08-1.25-6.88-3.06-2.86-2.88-2.58-7.55-1.94-11.56.74-4.7.69-7.79-1.27-11.91-1.54-3.27-1.32-8.07,1.82-10.49Z"/>
        <path class="cls-10" d="m33.72,41.24c2.1-1.62,5.02-1.68,7.59-1.13,2.57.55,5.01,1.61,7.6,2.02,2.73.43,5.58.06,8.17-.97,2.5-1,4.77-2.61,6.45-4.7,1.01-1.26,1.82-2.66,2.83-3.91,1.86-2.29,4.46-4.04,7.37-4.57,1.92-.35,3.99-.13,5.71.7.95.45,1.79,1.07,2.49,1.84.27.3.51.61.73.93,1.55,2.29,1.99,5.23,2.4,8.23.41,2.97.82,6,2.28,8.41.4.65.87,1.26,1.43,1.81,1.18,1.14,2.67,1.89,4.1,2.69,2.06,1.15,4.1,2.47,5.45,4.36,1.35,1.89,1.94,4.49.86,6.52-1.38,2.6-4.83,3.36-6.67,5.67-2.5,3.13-1.28,7.82.67,11.34,1.18,2.12,2.57,4.12,4.16,5.94,2.03,2.33,4.41,4.45,5.62,7.29,1.76,4.13.45,9.39-3.09,12.19s-9.19,2.91-12.95.21c-2.38-1.71-3.98-4.3-6.21-6.19-1.43-1.21-3.11-2.1-4.91-2.62-1.9-.56-3.92-.7-5.85-.37-1.86.32-3.58,1.04-5.27,1.86-2.01.97-3.98,2.09-6.06,2.89-.76.29-1.53.54-2.32.74-1.26.33-2.55.54-3.86.64-1.77.13-3.64,0-5.15-.93-1.92-1.2-2.88-3.57-2.87-5.83.01-2.26.86-4.44,1.92-6.44.36-.69.76-1.4,1.12-2.13,1.08-2.13,1.94-4.37,1.19-6.54-.9-2.57-3.71-3.84-6.3-4.55-.28-.08-.56-.15-.84-.22-2.36-.61-4.82-1.19-6.53-2.92-2.72-2.74-2.45-7.17-1.85-10.98.69-4.47.66-7.41-1.19-11.31-1.45-3.1-1.23-7.66,1.75-9.96Z"/>
        <path class="cls-12" d="m35.5,42.67c1.99-1.53,4.76-1.59,7.19-1.08,2.43.51,4.74,1.51,7.2,1.89,2.58.4,5.28.04,7.73-.93,2.37-.94,4.52-2.47,6.12-4.45.96-1.19,1.73-2.52,2.69-3.7,1.76-2.16,4.23-3.82,6.98-4.32,1.83-.33,3.79-.12,5.43.67.9.44,1.69,1.02,2.34,1.75.25.28.48.58.69.89,1.45,2.17,1.85,4.97,2.24,7.82.39,2.83.77,5.71,2.16,7.99.38.62.83,1.2,1.36,1.71,1.12,1.08,2.54,1.8,3.9,2.55,1.96,1.09,3.9,2.33,5.19,4.12,1.29,1.78,1.87,4.24.85,6.17-1.3,2.46-4.55,3.18-6.29,5.36-2.36,2.97-1.21,7.4.63,10.72,1.11,2.01,2.43,3.89,3.93,5.62,1.91,2.2,4.16,4.21,5.3,6.89,1.66,3.9.42,8.88-2.93,11.52s-8.72,2.75-12.3.19c-2.26-1.62-3.78-4.07-5.9-5.86-1.36-1.14-2.96-1.99-4.66-2.48-1.8-.52-3.72-.66-5.55-.34-1.77.31-3.39,1-4.98,1.78-1.9.93-3.76,2-5.73,2.76-.72.28-1.45.52-2.19.71-1.19.32-2.42.52-3.65.62-1.68.13-3.45.01-4.89-.87-1.82-1.14-2.74-3.38-2.73-5.52,0-2.14.81-4.2,1.8-6.1.34-.66.71-1.33,1.06-2.02,1.02-2.02,1.84-4.14,1.12-6.19-.85-2.43-3.5-3.65-5.95-4.32-.26-.07-.53-.14-.79-.21-2.23-.58-4.55-1.14-6.17-2.78-2.57-2.6-2.33-6.79-1.76-10.4.65-4.24.61-7.02-1.11-10.72-1.37-2.94-1.14-7.25,1.69-9.43Z"/>
        <path class="cls-13" d="m37.27,44.1c1.88-1.45,4.49-1.51,6.78-1.04,2.29.47,4.47,1.41,6.79,1.77,2.44.37,4.98.03,7.29-.89,2.24-.89,4.26-2.33,5.78-4.2.91-1.12,1.63-2.37,2.54-3.49,1.67-2.04,4-3.6,6.6-4.07,1.73-.31,3.6-.11,5.14.64.85.42,1.59.97,2.2,1.67.24.27.45.55.64.84,1.36,2.06,1.72,4.71,2.08,7.41.36,2.68.72,5.41,2.04,7.57.36.59.78,1.13,1.29,1.62,1.06,1.02,2.41,1.7,3.7,2.41,1.86,1.02,3.71,2.2,4.93,3.87,1.23,1.68,1.79,3.99.84,5.82-1.21,2.33-4.28,3-5.92,5.06-2.22,2.8-1.13,6.97.59,10.11,1.04,1.89,2.28,3.67,3.69,5.3,1.8,2.08,3.91,3.97,4.98,6.5,1.56,3.68.39,8.37-2.77,10.85s-8.26,2.59-11.64.16c-2.14-1.53-3.58-3.84-5.59-5.53-1.28-1.08-2.8-1.87-4.41-2.34-1.7-.49-3.52-.62-5.25-.31-1.67.3-3.19.96-4.7,1.7-1.79.88-3.54,1.9-5.4,2.63-.67.27-1.36.49-2.07.68-1.12.3-2.28.5-3.45.6-1.58.12-3.27.02-4.62-.82-1.73-1.07-2.59-3.19-2.58-5.21,0-2.02.76-3.97,1.69-5.76.32-.62.67-1.26,1-1.9.96-1.91,1.73-3.91,1.06-5.85-.8-2.3-3.29-3.45-5.6-4.09-.25-.07-.5-.14-.75-.2-2.1-.55-4.29-1.09-5.82-2.64-2.43-2.46-2.21-6.41-1.67-9.82.61-4.01.58-6.64-1.04-10.13-1.28-2.77-1.06-6.83,1.62-8.9Z"/>
        <path class="cls-30" d="m39.05,45.53c1.77-1.36,4.22-1.43,6.38-.99,2.16.44,4.2,1.31,6.38,1.64,2.29.34,4.68.02,6.86-.86,2.11-.84,4.01-2.2,5.44-3.95.85-1.05,1.54-2.23,2.4-3.27,1.57-1.91,3.77-3.38,6.21-3.83,1.64-.3,3.4-.11,4.85.62.8.4,1.49.93,2.06,1.58.22.25.42.52.59.79,1.26,1.94,1.59,4.44,1.92,6.99.33,2.53.68,5.11,1.92,7.15.34.55.74,1.07,1.22,1.53,1.01.96,2.28,1.6,3.5,2.26,1.76.96,3.51,2.06,4.67,3.63,1.17,1.57,1.72,3.75.83,5.47-1.13,2.19-4.01,2.82-5.54,4.75-2.08,2.63-1.06,6.55.56,9.49.98,1.78,2.14,3.45,3.46,4.98,1.68,1.95,3.66,3.73,4.66,6.1,1.45,3.45.35,7.85-2.62,10.18s-7.79,2.42-10.98.14c-2.02-1.44-3.39-3.62-5.29-5.2-1.21-1.01-2.64-1.76-4.17-2.2-1.61-.46-3.32-.58-4.95-.28-1.57.29-3,.92-4.41,1.62-1.67.84-3.32,1.81-5.06,2.5-.63.25-1.28.47-1.94.65-1.06.29-2.15.48-3.25.57-1.49.12-3.08.03-4.36-.76-1.63-1-2.44-2.99-2.44-4.9,0-1.9.7-3.74,1.58-5.42.3-.58.63-1.18.94-1.79.9-1.79,1.62-3.68.99-5.51-.75-2.17-3.08-3.25-5.25-3.87-.23-.07-.46-.13-.7-.19-1.97-.53-4.03-1.04-5.47-2.5-2.28-2.32-2.07-6.03-1.59-9.25.57-3.78.54-6.26-.96-9.54-1.19-2.61-.97-6.42,1.55-8.36Z"/>
        <path class="cls-28" d="m40.82,46.96c1.66-1.28,3.95-1.34,5.97-.94,2.02.4,3.93,1.21,5.97,1.51,2.15.31,4.38,0,6.42-.82,1.97-.79,3.76-2.06,5.1-3.7.8-.98,1.45-2.08,2.26-3.06,1.48-1.79,3.53-3.16,5.83-3.58,1.54-.28,3.21-.1,4.56.59.75.38,1.39.88,1.91,1.5.2.24.38.49.55.75,1.16,1.83,1.46,4.18,1.76,6.58.3,2.38.63,4.81,1.81,6.73.32.52.7,1,1.16,1.44.95.9,2.14,1.5,3.3,2.12,1.66.9,3.31,1.92,4.41,3.38,1.11,1.46,1.65,3.5.83,5.12-1.04,2.05-3.74,2.64-5.17,4.45-1.94,2.46-.99,6.12.52,8.88.91,1.66,1.99,3.23,3.22,4.66,1.57,1.82,3.41,3.49,4.34,5.71,1.35,3.23.32,7.34-2.46,9.52s-7.32,2.26-10.33.12c-1.9-1.35-3.19-3.39-4.98-4.88-1.14-.95-2.49-1.65-3.92-2.06-1.51-.43-3.12-.54-4.65-.25-1.47.28-2.81.87-4.12,1.54-1.56.8-3.1,1.71-4.73,2.37-.59.24-1.2.45-1.82.62-.99.28-2.01.46-3.05.55-1.4.12-2.89.04-4.1-.7-1.52-.94-2.29-2.8-2.29-4.59,0-1.78.65-3.5,1.47-5.09.28-.55.59-1.11.87-1.68.84-1.68,1.52-3.45.93-5.17-.7-2.03-2.88-3.06-4.9-3.64-.22-.06-.43-.12-.65-.18-1.84-.5-3.76-.98-5.11-2.35-2.14-2.17-1.95-5.66-1.5-8.67.53-3.55.5-5.87-.89-8.95-1.11-2.44-.88-6.01,1.48-7.83Z"/>
        <path class="cls-14" d="m42.6,48.39c1.55-1.19,3.68-1.26,5.56-.89,1.88.37,3.66,1.11,5.57,1.38,2,.28,4.08-.01,5.99-.78,1.84-.74,3.51-1.92,4.76-3.45.75-.92,1.36-1.94,2.11-2.85,1.38-1.66,3.3-2.94,5.44-3.33,1.44-.26,3.01-.09,4.27.56.69.36,1.29.83,1.77,1.41.19.22.35.46.5.7,1.06,1.72,1.32,3.92,1.6,6.16.27,2.23.58,4.51,1.69,6.32.3.49.66.94,1.09,1.35.89.85,2.01,1.4,3.1,1.98,1.56.83,3.11,1.78,4.15,3.14,1.05,1.36,1.58,3.25.82,4.76-.96,1.91-3.46,2.46-4.79,4.14-1.8,2.29-.92,5.7.48,8.26.85,1.55,1.85,3,2.99,4.33,1.45,1.7,3.16,3.25,4.02,5.31,1.25,3,.29,6.83-2.3,8.85s-6.86,2.1-9.67.1c-1.78-1.27-2.99-3.17-4.67-4.55-1.07-.88-2.33-1.54-3.67-1.92-1.41-.4-2.92-.49-4.35-.22-1.37.27-2.62.83-3.84,1.47-1.45.75-2.88,1.62-4.4,2.25-.55.23-1.12.43-1.69.59-.92.26-1.88.44-2.85.53-1.31.12-2.71.04-3.83-.65-1.42-.87-2.14-2.61-2.15-4.27,0-1.66.6-3.27,1.35-4.75.26-.51.54-1.04.81-1.57.78-1.57,1.41-3.22.86-4.83-.64-1.9-2.67-2.86-4.55-3.41-.2-.06-.4-.12-.61-.17-1.71-.47-3.5-.93-4.76-2.21-1.99-2.03-1.82-5.28-1.41-8.09.49-3.32.47-5.49-.81-8.36-1.02-2.28-.79-5.6,1.41-7.3Z"/>
        <path class="cls-23" d="m44.38,49.82c1.44-1.11,3.42-1.17,5.16-.84,1.74.33,3.4,1.01,5.16,1.25,1.85.25,3.78-.03,5.55-.74,1.71-.69,3.26-1.78,4.42-3.2.7-.85,1.26-1.79,1.97-2.63,1.29-1.54,3.07-2.72,5.06-3.08,1.35-.24,2.82-.08,3.99.53.64.34,1.19.78,1.63,1.33.17.21.32.43.46.65.97,1.6,1.19,3.65,1.44,5.75.25,2.08.53,4.22,1.57,5.9.28.46.62.88,1.02,1.25.83.79,1.88,1.3,2.9,1.84,1.46.77,2.91,1.64,3.89,2.9.99,1.25,1.5,3,.81,4.41-.87,1.77-3.19,2.28-4.41,3.84-1.66,2.12-.85,5.27.44,7.64.78,1.43,1.7,2.78,2.75,4.01,1.34,1.57,2.91,3.01,3.7,4.92,1.15,2.78.26,6.32-2.15,8.18-2.54,1.97-6.39,1.93-9.02.07-1.66-1.18-2.8-2.94-4.36-4.22-1-.82-2.17-1.43-3.42-1.78-1.32-.37-2.72-.45-4.05-.19-1.28.26-2.42.79-3.55,1.39-1.34.71-2.66,1.52-4.07,2.12-.51.22-1.03.4-1.57.56-.86.25-1.74.42-2.64.51-1.22.11-2.52.05-3.57-.59-1.32-.81-1.99-2.42-2.01-3.96-.01-1.54.54-3.03,1.24-4.41.24-.48.5-.96.75-1.46.72-1.46,1.3-2.99.8-4.48-.59-1.76-2.46-2.66-4.2-3.18-.19-.06-.37-.11-.56-.16-1.58-.45-3.24-.88-4.4-2.07-1.84-1.89-1.7-4.9-1.32-7.51.45-3.09.43-5.11-.74-7.76-.93-2.11-.71-5.19,1.35-6.77Z"/>
        <path class="cls-24" d="m46.15,51.25c1.33-1.02,3.15-1.09,4.75-.79,1.61.3,3.13.91,4.75,1.12,1.71.22,3.48-.04,5.11-.7,1.57-.64,3-1.65,4.08-2.95.65-.78,1.17-1.65,1.82-2.42,1.19-1.41,2.84-2.5,4.67-2.83,1.25-.22,2.62-.08,3.7.51.59.32,1.09.74,1.48,1.24.15.2.29.4.41.61.87,1.49,1.06,3.39,1.28,5.33.22,1.93.48,3.92,1.45,5.48.26.42.57.81.95,1.16.78.73,1.75,1.2,2.69,1.69,1.36.71,2.71,1.5,3.63,2.65.92,1.15,1.43,2.75.8,4.06-.79,1.63-2.92,2.1-4.04,3.53-1.52,1.95-.77,4.85.41,7.03.71,1.32,1.56,2.56,2.52,3.69,1.22,1.45,2.67,2.77,3.38,4.52,1.05,2.55.22,5.81-1.99,7.51-2.35,1.82-5.92,1.77-8.36.05-1.54-1.09-2.6-2.71-4.05-3.9-.93-.76-2.02-1.31-3.18-1.63-1.22-.34-2.52-.41-3.75-.16-1.18.24-2.23.75-3.27,1.31-1.23.67-2.44,1.43-3.73,1.99-.47.2-.95.38-1.44.53-.79.24-1.61.4-2.44.49-1.13.11-2.33.06-3.31-.54-1.22-.74-1.84-2.23-1.86-3.65-.02-1.42.49-2.8,1.13-4.07.22-.44.46-.89.68-1.35.66-1.35,1.2-2.77.74-4.14-.54-1.63-2.25-2.47-3.85-2.95-.17-.05-.34-.1-.52-.15-1.45-.42-2.98-.83-4.05-1.93-1.7-1.75-1.57-4.52-1.23-6.93.41-2.86.4-4.72-.66-7.17-.84-1.95-.62-4.77,1.28-6.23Z"/>
        <path class="cls-22" d="m47.93,52.68c1.22-.93,2.88-1.01,4.35-.75,1.47.26,2.86.81,4.34.99,1.56.2,3.19-.05,4.68-.66,1.44-.59,2.75-1.51,3.74-2.7.59-.71,1.08-1.5,1.68-2.21,1.09-1.29,2.61-2.28,4.29-2.58,1.16-.21,2.43-.07,3.41.48.54.3.99.69,1.34,1.16.14.18.26.37.37.56.77,1.37.93,3.12,1.12,4.92.19,1.78.43,3.62,1.33,5.06.24.39.53.75.88,1.07.72.67,1.62,1.1,2.49,1.55,1.26.65,2.51,1.37,3.37,2.41.86,1.04,1.36,2.51.79,3.71-.7,1.49-2.65,1.92-3.66,3.23-1.38,1.78-.7,4.42.37,6.41.65,1.2,1.41,2.33,2.28,3.37,1.11,1.32,2.42,2.53,3.07,4.13.94,2.33.19,5.29-1.83,6.84-2.17,1.67-5.46,1.61-7.71.03-1.42-1-2.4-2.49-3.75-3.57-.86-.69-1.86-1.2-2.93-1.49-1.13-.31-2.33-.37-3.45-.13-1.08.23-2.04.71-2.98,1.23-1.12.62-2.22,1.33-3.4,1.86-.43.19-.87.36-1.32.5-.72.23-1.47.38-2.24.47-1.04.11-2.15.06-3.05-.48-1.12-.68-1.7-2.04-1.72-3.34-.02-1.3.44-2.57,1.01-3.73.2-.4.42-.82.62-1.24.6-1.24,1.09-2.54.67-3.8-.49-1.49-2.05-2.27-3.5-2.73-.15-.05-.31-.1-.47-.14-1.32-.4-2.71-.77-3.69-1.79-1.55-1.61-1.45-4.15-1.14-6.36.37-2.63.36-4.34-.59-6.58-.75-1.78-.53-4.36,1.21-5.7Z"/>
        <path class="cls-20" d="m49.71,54.11c1.1-.85,2.61-.92,3.94-.7,1.33.22,2.59.71,3.94.87,1.41.17,2.89-.07,4.24-.62,1.31-.54,2.5-1.37,3.4-2.45.54-.64.99-1.36,1.53-2,1-1.16,2.38-2.05,3.9-2.33,1.06-.19,2.23-.06,3.12.45.49.28.89.64,1.2,1.07.12.17.23.34.32.52.67,1.26.79,2.86.96,4.51.16,1.63.38,3.32,1.21,4.64.23.36.49.68.81.98.66.61,1.49,1,2.29,1.41,1.16.58,2.31,1.23,3.11,2.16.8.93,1.29,2.26.79,3.35-.62,1.35-2.37,1.74-3.29,2.92-1.24,1.61-.63,4,.33,5.8.58,1.09,1.27,2.11,2.05,3.05,1,1.2,2.17,2.29,2.75,3.73.84,2.1.16,4.78-1.68,6.18-1.99,1.52-4.99,1.44-7.05,0-1.3-.91-2.21-2.26-3.44-3.24-.79-.63-1.71-1.09-2.68-1.35-1.03-.28-2.13-.33-3.15-.1-.98.22-1.85.67-2.69,1.15-1.01.58-2,1.24-3.07,1.73-.39.18-.79.33-1.2.47-.65.21-1.34.36-2.04.44-.95.11-1.96.07-2.78-.42-1.02-.61-1.55-1.84-1.57-3.03-.03-1.18.38-2.33.9-3.4.18-.37.37-.75.56-1.13.54-1.13.98-2.31.61-3.46-.44-1.36-1.84-2.07-3.15-2.5-.14-.05-.28-.09-.42-.13-1.19-.37-2.45-.72-3.34-1.64-1.41-1.46-1.32-3.77-1.05-5.78.32-2.4.32-3.96-.51-5.99-.67-1.62-.44-3.95,1.14-5.17Z"/>
        <path class="cls-8" d="m51.48,55.54c.99-.76,2.34-.84,3.54-.65,1.19.19,2.32.61,3.53.74,1.27.14,2.59-.08,3.8-.59,1.17-.49,2.25-1.24,3.07-2.2.49-.58.89-1.21,1.39-1.78.9-1.04,2.14-1.83,3.52-2.08.97-.17,2.04-.06,2.83.42.44.26.78.59,1.06.99.1.15.2.31.28.47.58,1.14.66,2.6.8,4.09.13,1.49.33,3.03,1.09,4.22.21.32.45.62.74.88.6.55,1.36.91,2.09,1.27,1.06.52,2.11,1.09,2.85,1.92s1.21,2.01.78,3c-.53,1.21-2.1,1.55-2.91,2.62-1.1,1.44-.56,3.57.3,5.18.52.97,1.12,1.89,1.82,2.73.88,1.07,1.92,2.05,2.43,3.34.74,1.88.12,4.27-1.52,5.51-1.81,1.37-4.52,1.28-6.39-.02-1.18-.82-2.01-2.03-3.13-2.92-.72-.56-1.55-.98-2.43-1.21-.93-.25-1.93-.29-2.85-.07-.88.21-1.65.62-2.41,1.08-.9.54-1.78,1.14-2.73,1.6-.35.17-.7.31-1.07.44-.59.2-1.21.34-1.84.42-.85.1-1.77.08-2.52-.37-.92-.55-1.4-1.65-1.43-2.72-.03-1.06.33-2.1.79-3.06.16-.33.33-.67.5-1.02.48-1.02.87-2.08.54-3.11-.39-1.23-1.63-1.88-2.8-2.27-.12-.04-.25-.08-.38-.12-1.06-.34-2.19-.67-2.98-1.5-1.26-1.32-1.2-3.39-.96-5.2.28-2.17.29-3.57-.44-5.4-.58-1.45-.36-3.54,1.08-4.64Z"/>
        <path class="cls-25" d="m53.26,56.98c.88-.68,2.08-.76,3.13-.6,1.05.15,2.05.51,3.12.61,1.12.11,2.29-.1,3.37-.55,1.04-.43,2-1.1,2.73-1.94.44-.51.8-1.07,1.24-1.57.81-.91,1.91-1.62,3.13-1.83.87-.15,1.84-.05,2.55.4.39.24.68.55.91.9.09.14.17.28.23.42.48,1.03.53,2.33.64,3.68.11,1.34.28,2.73.98,3.8.19.29.41.56.67.79.55.49,1.23.81,1.89,1.12.95.46,1.91.95,2.59,1.67s1.14,1.76.77,2.65c-.45,1.07-1.83,1.37-2.54,2.31-.96,1.27-.48,3.15.26,4.57.45.86.98,1.67,1.58,2.41.77.94,1.67,1.81,2.11,2.94.64,1.65.09,3.76-1.36,4.84-1.63,1.21-4.06,1.12-5.74-.04-1.06-.73-1.81-1.81-2.82-2.59-.64-.5-1.39-.86-2.19-1.07-.84-.22-1.73-.25-2.54-.04-.79.2-1.46.58-2.12,1-.79.49-1.56,1.05-2.4,1.47-.31.15-.62.29-.95.41-.52.19-1.07.32-1.63.4-.76.1-1.58.08-2.26-.31-.82-.48-1.25-1.46-1.28-2.4-.03-.94.27-1.87.68-2.72.14-.3.29-.6.43-.91.42-.9.77-1.85.48-2.77-.34-1.09-1.43-1.68-2.45-2.04-.11-.04-.22-.08-.33-.11-.93-.32-1.92-.62-2.63-1.36-1.12-1.18-1.07-3.01-.87-4.62.24-1.94.25-3.19-.36-4.81-.49-1.29-.27-3.12,1.01-4.1Z"/>
        <path class="cls-6" d="m55.03,58.41c.77-.59,1.81-.67,2.72-.55.92.12,1.79.41,2.71.48.97.08,1.99-.11,2.93-.51.91-.38,1.74-.96,2.39-1.69.39-.44.71-.92,1.1-1.36.71-.79,1.68-1.4,2.75-1.58.78-.14,1.65-.04,2.26.37.34.22.58.5.77.82.07.12.13.25.19.38.38.92.4,2.07.48,3.26.08,1.19.23,2.43.86,3.39.17.26.37.49.6.7.49.43,1.09.71,1.69.98.85.39,1.71.81,2.33,1.43s1.07,1.51.76,2.3c-.36.93-1.56,1.19-2.16,2-.82,1.1-.41,2.72.22,3.95.38.74.83,1.44,1.35,2.08.65.82,1.42,1.57,1.79,2.55.54,1.43.06,3.24-1.21,4.17-1.44,1.06-3.59.95-5.08-.06-.94-.64-1.62-1.58-2.51-2.26-.57-.43-1.24-.75-1.94-.93-.74-.18-1.53-.2-2.24,0-.69.19-1.27.54-1.84.92-.67.45-1.34.95-2.07,1.34-.26.14-.54.27-.82.38-.45.17-.94.3-1.43.38-.67.1-1.4.09-1.99-.25-.72-.42-1.1-1.27-1.14-2.09-.04-.82.22-1.63.56-2.38.12-.26.25-.53.37-.8.36-.79.66-1.62.41-2.43-.29-.96-1.22-1.48-2.1-1.82-.09-.04-.19-.07-.29-.11-.8-.29-1.66-.56-2.27-1.22-.97-1.04-.95-2.63-.79-4.04.2-1.71.22-2.81-.29-4.21-.4-1.12-.18-2.71.94-3.57Z"/>
        <path class="cls-17" d="m56.81,59.84c.66-.51,1.54-.59,2.32-.51.78.08,1.52.31,2.31.35.83.05,1.69-.13,2.49-.47.78-.33,1.49-.82,2.05-1.44.33-.37.61-.78.95-1.14.62-.66,1.45-1.17,2.36-1.33.68-.12,1.45-.03,1.97.34.29.2.48.45.63.73.06.11.1.22.14.33.29.8.26,1.8.32,2.85.05,1.04.18,2.13.74,2.97.15.23.32.43.53.61.43.37.96.61,1.49.84.75.33,1.51.68,2.06,1.18s1,1.26.75,1.95c-.28.79-1.29,1.01-1.78,1.7-.68.93-.34,2.3.18,3.34.32.63.69,1.22,1.11,1.76.54.69,1.17,1.33,1.47,2.15.43,1.2.02,2.73-1.05,3.51-1.26.91-3.12.79-4.43-.09-.82-.55-1.42-1.36-2.21-1.93-.5-.37-1.08-.64-1.69-.79-.64-.15-1.33-.16-1.94.02-.59.18-1.08.5-1.55.84-.56.41-1.12.86-1.73,1.21-.22.13-.46.24-.7.34-.39.16-.8.28-1.23.36-.58.1-1.21.1-1.73-.2-.62-.35-.95-1.08-1-1.78-.04-.7.17-1.4.45-2.05.1-.22.2-.45.31-.69.3-.68.55-1.39.35-2.09-.24-.82-1.01-1.28-1.75-1.59-.08-.03-.16-.06-.24-.1-.67-.26-1.4-.51-1.92-1.08-.83-.9-.82-2.26-.7-3.46.16-1.48.18-2.43-.21-3.62-.31-.96-.09-2.3.87-3.04Z"/>
        <path class="cls-4" d="m58.59,61.27c.55-.42,1.27-.5,1.91-.46.64.05,1.25.21,1.9.22.68.02,1.39-.14,2.06-.43.64-.28,1.24-.69,1.71-1.19.28-.3.52-.64.81-.93.52-.54,1.22-.95,1.98-1.08.59-.1,1.26-.03,1.68.31.23.18.38.4.48.65.04.09.07.19.1.29.19.69.13,1.54.15,2.44.02.89.13,1.84.62,2.55.13.19.28.36.46.52.37.32.83.51,1.29.7.65.27,1.31.54,1.8.94s.92,1.01.74,1.59c-.2.64-1.01.83-1.41,1.39-.54.76-.27,1.87.15,2.72.25.51.55,1,.88,1.44.42.57.92,1.09,1.15,1.76.33.98-.01,2.22-.89,2.84-1.08.76-2.66.63-3.77-.11-.7-.46-1.22-1.13-1.9-1.61-.43-.31-.92-.53-1.44-.64-.55-.12-1.13-.12-1.64.05-.49.17-.88.46-1.27.76-.45.36-.9.76-1.4,1.08-.18.12-.37.22-.57.31-.32.15-.67.26-1.03.34-.49.09-1.02.1-1.47-.14-.52-.29-.8-.88-.85-1.47-.05-.58.11-1.16.34-1.71.08-.19.16-.38.24-.58.24-.57.45-1.17.29-1.75-.19-.69-.8-1.09-1.4-1.36-.06-.03-.13-.06-.19-.09-.54-.24-1.14-.46-1.56-.93-.68-.75-.7-1.88-.61-2.89.11-1.25.14-2.04-.14-3.03-.22-.79,0-1.89.8-2.51Z"/>
        <path class="cls-33" d="m60.36,62.7c.44-.33,1-.42,1.51-.41.5.01.98.11,1.49.09.53-.01,1.09-.15,1.62-.39.51-.23.99-.55,1.37-.94.23-.23.43-.49.66-.72.43-.41.98-.73,1.59-.84.49-.08,1.06-.02,1.39.28.18.17.28.36.34.56.02.08.04.16.05.24.09.58,0,1.28,0,2.02,0,.74.09,1.54.5,2.13.11.16.24.3.39.42.31.26.7.41,1.09.55.55.2,1.11.4,1.54.69s.85.75.74,1.24-.74.65-1.03,1.09c-.4.59-.2,1.45.11,2.11.18.4.4.77.64,1.12.31.44.67.85.83,1.36.23.75-.05,1.7-.74,2.17-.9.61-2.19.46-3.11-.13-.58-.37-1.03-.9-1.59-1.28-.36-.24-.77-.42-1.2-.5-.45-.09-.93-.08-1.34.08-.4.16-.69.42-.98.69-.34.32-.68.67-1.07.95-.14.1-.29.2-.45.28-.25.14-.53.24-.83.31-.4.09-.84.11-1.2-.08-.42-.22-.66-.69-.71-1.16-.05-.46.06-.93.22-1.37.06-.15.12-.31.18-.47.18-.46.34-.94.22-1.4-.14-.55-.6-.89-1.05-1.13-.05-.03-.1-.05-.15-.08-.42-.21-.87-.41-1.21-.79-.53-.61-.58-1.5-.52-2.31.07-1.02.11-1.66-.06-2.44-.14-.63.08-1.48.74-1.98Z"/>
        <path class="cls-32" d="m62.14,64.13c.33-.25.74-.34,1.1-.36.37-.02.71,0,1.08-.03.39-.04.79-.17,1.19-.35.38-.18.73-.41,1.03-.69.18-.17.34-.35.52-.5.33-.29.75-.51,1.21-.59.4-.06.86-.01,1.11.26.13.15.18.31.2.48,0,.06,0,.13,0,.19,0,.46-.13,1.01-.17,1.61-.04.59.04,1.24.38,1.71.09.13.2.24.32.33.26.2.57.31.88.41.45.14.91.26,1.28.45s.69.49.73.89c-.12.33-.47.47-.66.78-.26.42-.12,1.02.07,1.49.12.28.26.55.41.8.19.32.42.61.51.97.13.53-.08,1.19-.58,1.5-.72.46-1.72.3-2.46-.15-.46-.28-.83-.68-1.28-.95-.29-.18-.61-.3-.95-.36-.36-.06-.73-.04-1.04.11-.3.14-.5.38-.69.61-.23.28-.46.57-.73.82-.1.09-.21.18-.32.25-.19.12-.4.23-.62.29-.31.09-.65.12-.94-.03-.32-.16-.51-.5-.56-.85-.05-.34,0-.7.11-1.03.04-.12.08-.24.12-.35.12-.35.23-.71.16-1.06-.09-.42-.39-.69-.7-.9-.03-.02-.07-.04-.1-.07-.29-.18-.61-.35-.85-.65-.39-.47-.45-1.12-.43-1.73.03-.79.07-1.28.02-1.85-.05-.47.17-1.06.67-1.44Z"/>
        <path class="cls-16" d="m63.91,65.56c.22-.16.47-.25.69-.31.23-.06.44-.1.67-.16.24-.07.5-.18.75-.31.24-.13.48-.28.69-.44.13-.1.24-.2.37-.29.24-.17.52-.29.82-.34s.67,0,.82.23c.08.13.08.26.05.39,0,.05-.02.1-.04.15-.1.35-.26.75-.33,1.19-.06.44-.01.94.26,1.29.07.09.16.17.25.24.2.14.44.21.68.27.35.08.72.12,1.02.21s.62.24.72.54c-.04.19-.2.29-.28.48-.12.25-.05.6.04.88.05.17.11.33.17.48.08.19.17.36.19.57.03.3-.12.67-.42.84-.54.31-1.26.14-1.8-.18-.34-.2-.63-.45-.97-.63-.22-.11-.45-.19-.7-.22-.26-.03-.54,0-.74.14-.2.13-.31.33-.41.53-.12.23-.24.48-.4.7-.06.08-.13.15-.2.22-.12.11-.26.21-.42.27-.21.09-.46.12-.68.03s-.36-.31-.42-.53c-.06-.22-.05-.46,0-.69.02-.08.03-.16.06-.24.06-.24.12-.48.09-.72-.04-.28-.18-.5-.35-.68-.02-.02-.04-.04-.05-.06-.16-.16-.35-.3-.5-.51-.24-.33-.33-.75-.34-1.15-.02-.56.04-.9.09-1.26.04-.3.26-.65.6-.91Z"/>
        <path class="cls-7" d="m64.99,68.03c.07.33.33.61.4.94.06.29-.02.58-.02.87s.12.63.4.71c.25.07.51-.1.64-.33s.13-.5.14-.76c0-.16.02-.33.12-.45.1-.13.28-.17.44-.17.4,0,.76.2,1.12.38s.77.32,1.15.2.63-.64.37-.94c-.17-.19-.46-.21-.71-.18-.5.04-1.09.14-1.43-.23-.21-.23-.24-.58-.15-.87s.29-.55.49-.78c.1-.12.21-.26.17-.41-.06-.2-.32-.23-.53-.2-.36.05-.72.15-1.02.36-.34.23-.55.6-.87.83-.39.29-.83.41-.7,1.04Z"/>
      </g>
      <g>
        <path class="cls-36" d="m64.74,68.27l-8.89,3.24c-.3-.4-.52-.79-.65-1.16-.19-.52-.28-1.07-.28-1.64l2.98-1.08c-.63-1.08-1.5-1.43-2.59-1.03-.73.27-1.22.79-1.45,1.58s-.17,1.67.18,2.64.89,1.75,1.56,2.22,1.37.57,2.09.3c.59-.21,1.04-.71,1.37-1.49l4.8,2.8c-1.11,1.79-2.62,3.03-4.52,3.72-2.32.84-4.55.78-6.7-.21s-3.64-2.63-4.47-4.93-.74-4.51.28-6.67,2.69-3.66,5.01-4.51,4.46-.75,6.56.23c2.1.98,3.57,2.6,4.39,4.86.08.23.2.6.34,1.12Z"/>
        <path class="cls-36" d="m67.41,63.28l8.89,3.24c.3-.4.52-.79.65-1.16.19-.52.28-1.07.28-1.64l-2.98-1.08c.63-1.08,1.5-1.43,2.59-1.03.73.27,1.22.79,1.45,1.58s.17,1.67-.18,2.64-.89,1.75-1.56,2.22-1.37.57-2.09.3c-.59-.21-1.04-.71-1.37-1.49l-4.8,2.8c1.11,1.79,2.62,3.03,4.52,3.72,2.32.84,4.55.78,6.7-.21,2.15-.98,3.64-2.63,4.47-4.93s.74-4.51-.28-6.67-2.69-3.66-5.01-4.51-4.46-.75-6.56.23-3.57,2.6-4.39,4.86c-.08.23-.2.6-.34,1.12Z"/>
        <path class="cls-36" d="m6.33,53.26v13.82c0,2.24.81,3.37,2.42,3.37.69,0,1.27-.23,1.75-.7s.72-1.03.72-1.7-.22-1.27-.68-1.73-1-.7-1.66-.7c-.46,0-.99.2-1.59.61v-6.97c.74-.07,1.31-.1,1.69-.1,2.38,0,4.42.86,6.11,2.57s2.55,3.78,2.55,6.19-.86,4.55-2.59,6.24-3.84,2.54-6.36,2.54c-1.26,0-2.5-.28-3.7-.83s-2.19-1.3-2.97-2.23c-1.35-1.62-2.03-3.73-2.03-6.31v-14.06h6.33Z"/>
        <path class="cls-36" d="m26.74,53.26v23.09h-6.33v-23.09h6.33Z"/>
        <path class="cls-36" d="m30.45,59.72h6.33v9.52c0,.96.4,1.44,1.2,1.44s1.18-.48,1.18-1.44v-9.52h6.33v9.4c0,2.19-.73,4.03-2.18,5.54s-3.24,2.26-5.35,2.26c-2.4,0-4.34-.87-5.8-2.62-1.14-1.36-1.71-3.26-1.71-5.68v-8.9Z"/>
        <path class="cls-36" d="m96.92,68.58l6.28-.24c-.18,2.44-1.09,4.44-2.72,6s-3.62,2.35-5.97,2.35c-2.48,0-4.58-.86-6.28-2.59s-2.56-3.84-2.56-6.34.86-4.41,2.59-6.11c1.73-1.69,3.79-2.54,6.21-2.54,2.11,0,3.97.67,5.58,2s2.62,3.03,3.01,5.09l-6.41.24c-.55-.72-1.25-1.08-2.1-1.08-.72,0-1.31.24-1.78.71s-.69,1.07-.69,1.79.25,1.35.74,1.84,1.1.74,1.84.74c1.07,0,1.83-.63,2.28-1.88Z"/>
        <path class="cls-36" d="m112.28,53.26v7.05c1.07-.78,2.14-1.17,3.21-1.17,1.62,0,2.91.59,3.87,1.76s1.43,2.76,1.43,4.75v10.69h-6.33v-8.91c0-.72-.08-1.21-.23-1.45s-.45-.37-.89-.37c-.71,0-1.07.52-1.07,1.57v9.17h-6.33v-23.09h6.33Z"/>
        <path class="cls-36" d="m132.48,59.13c2.39,0,4.44.86,6.15,2.58,1.71,1.72,2.56,3.78,2.56,6.18s-.87,4.51-2.6,6.22-3.82,2.57-6.27,2.57-4.54-.86-6.28-2.58-2.6-3.79-2.6-6.22.87-4.55,2.6-6.23,3.88-2.53,6.43-2.53Zm-.17,6.24c-.68,0-1.25.25-1.73.74s-.71,1.09-.71,1.8.24,1.3.72,1.79,1.05.74,1.72.74,1.26-.25,1.73-.74.72-1.09.72-1.79-.24-1.31-.71-1.8-1.05-.74-1.74-.74Z"/>
        <path class="cls-11" d="m51.52,68.18c-1.81-4.66-1.6-9.53.2-13.44,1.44-3.13,3.91-5.64,7.17-6.91,8.99-3.69,15.93,1.63,19.19,10.01"/>
        <path class="cls-15" d="m51.58,55.06c.4-1.02,1.17-2.59,2.61-4.14,1.7-1.82,3.53-2.74,4.61-3.19,1.83-.79,3.42-1.02,4.46-1.1,1.23-.09,2.2.01,2.62.07,1.78.23,3.17.78,4.06,1.22"/>
      </g>
    </g>
  </g>
</svg>