<?xml version="1.0" encoding="UTF-8"?>
<svg id="Calque_2" data-name="Calque 2" xmlns="http://www.w3.org/2000/svg" viewBox="0 0 37.89 35.73">
  <defs>
    <style>
      .cls-1 {
        stroke: #1d1d1b;
        stroke-width: 1.34px;
      }

      .cls-1, .cls-2 {
        fill: none;
        stroke-miterlimit: 10;
      }

      .cls-2 {
        stroke: #000;
        stroke-linecap: round;
        stroke-width: 4.87px;
      }

      .cls-3 {
        fill: #1d1d1b;
        stroke-width: 0px;
      }
    </style>
  </defs>
  <g id="Calque_1-2" data-name="Calque 1">
    <g>
      <path class="cls-3" d="m7.78,26.9c.14.39.36.78.67,1.19l9.12-3.32c-.14-.53-.26-.91-.35-1.15-.84-2.32-2.34-3.98-4.5-4.98-2.16-1.01-4.4-1.09-6.73-.24-2.38.87-4.09,2.41-5.14,4.62-1.05,2.21-1.14,4.5-.29,6.84.86,2.36,2.39,4.04,4.59,5.05s4.49,1.08,6.87.21c1.95-.71,3.5-1.98,4.64-3.82l-4.92-2.87c-.34.8-.81,1.31-1.41,1.53-.74.27-1.46.17-2.14-.31s-1.22-1.24-1.6-2.28c-.36-1-.42-1.9-.19-2.71s.73-1.35,1.49-1.62c1.13-.41,2.01-.06,2.66,1.05l-3.06,1.11c0,.58.09,1.15.28,1.68Z"/>
      <path class="cls-3" d="m31.89,13.29c-2.33-.85-4.57-.77-6.73.24-2.16,1.01-3.66,2.67-4.5,4.98-.09.24-.2.62-.35,1.15l9.12,3.32c.31-.41.53-.81.67-1.19.2-.54.29-1.1.28-1.68l-3.06-1.11c.65-1.11,1.53-1.46,2.66-1.05.75.27,1.25.82,1.49,1.62.24.81.18,1.71-.19,2.71-.38,1.04-.91,1.8-1.6,2.28-.69.48-1.4.58-2.14.31-.6-.22-1.07-.73-1.41-1.53l-4.92,2.87c1.14,1.84,2.69,3.11,4.64,3.82,2.38.87,4.67.8,6.87-.21,2.2-1.01,3.73-2.69,4.59-5.05.85-2.35.76-4.63-.29-6.84-1.05-2.21-2.76-3.75-5.14-4.62Z"/>
      <g>
        <path class="cls-1" d="m4.62,23.94c-1.81-4.64-1.6-9.5.2-13.4,1.44-3.12,3.89-5.62,7.15-6.89C20.93-.03,27.84,5.27,31.09,13.63"/>
        <path class="cls-2" d="m4.68,10.86c.4-1.02,1.17-2.59,2.6-4.12,1.69-1.82,3.52-2.73,4.59-3.18,1.82-.78,3.41-1.02,4.45-1.09,1.23-.09,2.19.01,2.61.07,1.77.23,3.16.78,4.04,1.21"/>
      </g>
    </g>
  </g>
</svg>