<?xml version="1.0" encoding="UTF-8"?>
<svg id="Calque_2" data-name="Calque 2" xmlns="http://www.w3.org/2000/svg" viewBox="0 0 44.06 41.15">
  <defs>
    <style>
      .cls-1 {
        stroke-width: 1.34px;
      }

      .cls-1, .cls-2 {
        fill: none;
        stroke: #fff;
        stroke-miterlimit: 10;
      }

      .cls-3 {
        fill: #fff;
        stroke-width: 0px;
      }

      .cls-2 {
        stroke-linecap: round;
        stroke-width: 4.87px;
      }
    </style>
  </defs>
  <g id="Calque_1-2" data-name="Calque 1">
    <g>
      <path class="cls-3" d="m9.05,30.88c.16.45.42.91.78,1.39l10.61-3.86c-.17-.62-.3-1.06-.4-1.34-.98-2.69-2.73-4.62-5.23-5.79-2.51-1.17-5.12-1.26-7.82-.28-2.77,1.01-4.76,2.8-5.98,5.37-1.22,2.57-1.33,5.23-.33,7.96,1,2.74,2.78,4.7,5.34,5.87s5.22,1.26,7.99.25c2.27-.83,4.07-2.31,5.39-4.44l-5.73-3.34c-.39.93-.94,1.53-1.64,1.78-.86.31-1.69.19-2.49-.36s-1.42-1.44-1.86-2.65c-.42-1.16-.49-2.21-.22-3.15s.85-1.57,1.73-1.89c1.31-.48,2.34-.07,3.09,1.23l-3.55,1.29c0,.68.1,1.33.33,1.96Z"/>
      <path class="cls-3" d="m37.08,15.05c-2.71-.99-5.31-.89-7.82.28-2.51,1.17-4.25,3.1-5.23,5.79-.1.27-.23.72-.4,1.34l10.61,3.86c.36-.48.62-.94.78-1.39.23-.62.34-1.28.33-1.96l-3.55-1.29c.75-1.29,1.78-1.7,3.09-1.23.87.32,1.45.95,1.73,1.89.28.94.21,1.99-.22,3.15-.44,1.21-1.06,2.09-1.86,2.65-.8.56-1.63.68-2.49.36-.7-.25-1.24-.85-1.64-1.78l-5.73,3.34c1.33,2.13,3.13,3.62,5.39,4.44,2.77,1.01,5.43.93,7.99-.25,2.56-1.17,4.34-3.13,5.34-5.87.99-2.73.88-5.38-.33-7.96-1.22-2.57-3.21-4.37-5.98-5.37Z"/>
      <g>
        <path class="cls-1" d="m5.38,27.44c-2.1-5.39-1.86-11.05.23-15.58,1.67-3.63,4.53-6.54,8.31-8.01,10.42-4.28,18.46,1.89,22.24,11.6"/>
        <path class="cls-2" d="m5.44,12.23c.47-1.19,1.36-3.01,3.03-4.79,1.97-2.11,4.09-3.18,5.34-3.69,2.12-.91,3.97-1.18,5.17-1.27,1.43-.1,2.55.02,3.04.08,2.06.26,3.67.91,4.7,1.41"/>
      </g>
    </g>
  </g>
</svg>