<?xml version="1.0" encoding="UTF-8"?>
<svg id="Calque_2" data-name="Calque 2" xmlns="http://www.w3.org/2000/svg" viewBox="0 0 141.19 34.9">
  <defs>
    <style>
      .cls-1 {
        stroke-width: 1.34px;
      }

      .cls-1, .cls-2 {
        fill: none;
        stroke: #fff;
        stroke-miterlimit: 10;
      }

      .cls-3 {
        fill: #fff;
        stroke-width: 0px;
      }

      .cls-2 {
        stroke-linecap: round;
        stroke-width: 4.87px;
      }
    </style>
  </defs>
  <g id="Calque_1-2" data-name="Calque 1">
    <g>
      <g>
        <path class="cls-1" d="m52.11,23.4c-1.76-4.52-1.56-9.26.19-13.06,1.4-3.04,3.8-5.48,6.97-6.72,8.74-3.58,15.48,1.58,18.65,9.73"/>
        <path class="cls-2" d="m52.16,10.65c.39-.99,1.14-2.52,2.54-4.02,1.65-1.77,3.43-2.67,4.48-3.1,1.78-.76,3.33-.99,4.34-1.06,1.2-.09,2.13.01,2.55.07,1.73.22,3.08.76,3.94,1.18"/>
      </g>
      <g>
        <path class="cls-3" d="m55.19,26.29c.14.38.35.77.65,1.16l8.89-3.24c-.14-.52-.25-.89-.34-1.12-.82-2.26-2.29-3.88-4.39-4.86-2.1-.98-4.29-1.06-6.56-.23-2.32.84-3.99,2.35-5.01,4.51-1.02,2.16-1.11,4.38-.28,6.67.84,2.3,2.33,3.94,4.47,4.93s4.38,1.05,6.7.21c1.9-.69,3.41-1.93,4.52-3.72l-4.8-2.8c-.33.78-.79,1.28-1.37,1.49-.72.26-1.42.16-2.09-.3s-1.19-1.21-1.56-2.22c-.35-.97-.41-1.85-.18-2.64s.72-1.32,1.45-1.58c1.1-.4,1.96-.06,2.59,1.03l-2.98,1.08c0,.57.09,1.12.28,1.64Z"/>
        <path class="cls-3" d="m78.69,13.02c-2.27-.83-4.46-.75-6.56.23-2.1.98-3.57,2.6-4.39,4.86-.08.23-.2.6-.34,1.12l8.89,3.24c.3-.4.52-.79.65-1.16.19-.52.28-1.07.28-1.64l-2.98-1.08c.63-1.08,1.5-1.43,2.59-1.03.73.27,1.22.79,1.45,1.58.23.79.17,1.67-.18,2.64-.37,1.01-.89,1.75-1.56,2.22-.67.47-1.37.57-2.09.3-.59-.21-1.04-.71-1.37-1.49l-4.8,2.8c1.11,1.79,2.62,3.03,4.52,3.72,2.32.84,4.55.78,6.7-.21,2.15-.98,3.64-2.63,4.47-4.93.83-2.29.74-4.51-.28-6.67-1.02-2.16-2.69-3.66-5.01-4.51Z"/>
        <path class="cls-3" d="m8.98,15.09c-.38,0-.95.03-1.69.1v6.97c.6-.41,1.13-.61,1.59-.61.65,0,1.21.23,1.66.7s.68,1.05.68,1.73-.24,1.23-.72,1.7-1.06.7-1.75.7c-1.61,0-2.42-1.12-2.42-3.37v-13.82H0v14.06c0,2.58.68,4.69,2.03,6.31.78.94,1.77,1.68,2.97,2.23,1.2.55,2.43.83,3.7.83,2.52,0,4.63-.85,6.36-2.54,1.73-1.69,2.59-3.77,2.59-6.24s-.85-4.48-2.55-6.19c-1.7-1.71-3.73-2.57-6.11-2.57Z"/>
        <rect class="cls-3" x="20.42" y="9.2" width="6.33" height="23.09"/>
        <path class="cls-3" d="m39.16,25.19c0,.96-.39,1.44-1.18,1.44s-1.2-.48-1.2-1.44v-9.52h-6.33v8.9c0,2.42.57,4.32,1.71,5.68,1.47,1.75,3.4,2.62,5.8,2.62,2.11,0,3.89-.75,5.35-2.26,1.45-1.51,2.18-3.35,2.18-5.54v-9.4h-6.33v9.52Z"/>
        <path class="cls-3" d="m94.64,26.41c-.73,0-1.34-.25-1.84-.74-.49-.5-.74-1.11-.74-1.84s.23-1.32.69-1.79,1.05-.71,1.78-.71c.85,0,1.54.36,2.1,1.08l6.41-.24c-.39-2.06-1.4-3.76-3.01-5.09-1.61-1.33-3.47-2-5.58-2-2.41,0-4.48.85-6.21,2.54-1.73,1.69-2.59,3.73-2.59,6.11,0,2.5.85,4.62,2.56,6.34,1.71,1.73,3.8,2.59,6.28,2.59,2.35,0,4.34-.78,5.97-2.35,1.64-1.57,2.54-3.57,2.72-6l-6.28.24c-.45,1.25-1.21,1.88-2.28,1.88Z"/>
        <path class="cls-3" d="m115.5,15.09c-1.07,0-2.14.39-3.21,1.17v-7.05h-6.33v23.09h6.33v-9.17c0-1.05.36-1.57,1.07-1.57.44,0,.74.12.89.37.15.25.23.73.23,1.45v8.91h6.33v-10.69c0-2-.48-3.58-1.43-4.75-.95-1.17-2.24-1.76-3.87-1.76Z"/>
        <path class="cls-3" d="m138.63,17.65c-1.71-1.72-3.76-2.58-6.15-2.58-2.55,0-4.69.84-6.43,2.53-1.74,1.69-2.6,3.76-2.6,6.23s.87,4.5,2.6,6.22c1.74,1.72,3.83,2.58,6.28,2.58s4.54-.86,6.27-2.57c1.73-1.71,2.6-3.79,2.6-6.22s-.85-4.46-2.56-6.18Zm-4.58,7.99c-.48.5-1.06.74-1.73.74s-1.24-.25-1.72-.74-.72-1.09-.72-1.79.24-1.31.71-1.8c.47-.49,1.05-.74,1.73-.74s1.27.25,1.74.74c.47.49.71,1.09.71,1.8s-.24,1.3-.72,1.79Z"/>
      </g>
    </g>
  </g>
</svg>